%FSLAX45Y45*%
G04 Gerber Fmt 4.5, Leading zero omitted, Abs format (unit mm)*
G04 Created by KiCad (PCBNEW (5.1.9)-1) date 2021-01-02 03:10:12*
%MOMM*%
%LPD*%
G01*
G04 APERTURE LIST*
%TA.AperFunction,Profile*%
%ADD10C,0.050000*%
%TD*%
%ADD11C,0.200000*%
%ADD12C,0.300000*%
G04 APERTURE END LIST*
D10*
X4419600Y-17576800D02*
X7010400Y-17576800D01*
X4419600Y-14503400D02*
X4419600Y-17576800D01*
X7010400Y-14503400D02*
X4419600Y-14503400D01*
X7010400Y-17576800D02*
X7010400Y-14503400D01*
D11*
D12*
X4703528Y-18045014D02*
X4703528Y-17745014D01*
X4774957Y-17745014D01*
X4817814Y-17759300D01*
X4846386Y-17787872D01*
X4860671Y-17816443D01*
X4874957Y-17873586D01*
X4874957Y-17916443D01*
X4860671Y-17973586D01*
X4846386Y-18002157D01*
X4817814Y-18030729D01*
X4774957Y-18045014D01*
X4703528Y-18045014D01*
X5003528Y-18045014D02*
X5003528Y-17845014D01*
X5003528Y-17902157D02*
X5017814Y-17873586D01*
X5032100Y-17859300D01*
X5060671Y-17845014D01*
X5089243Y-17845014D01*
X5189243Y-18045014D02*
X5189243Y-17845014D01*
X5189243Y-17745014D02*
X5174957Y-17759300D01*
X5189243Y-17773586D01*
X5203528Y-17759300D01*
X5189243Y-17745014D01*
X5189243Y-17773586D01*
X5374957Y-18045014D02*
X5346386Y-18030729D01*
X5332100Y-18002157D01*
X5332100Y-17745014D01*
X5532100Y-18045014D02*
X5503528Y-18030729D01*
X5489243Y-18002157D01*
X5489243Y-17745014D01*
X5874957Y-18045014D02*
X5874957Y-17745014D01*
X5974957Y-17959300D01*
X6074957Y-17745014D01*
X6074957Y-18045014D01*
X6346386Y-18045014D02*
X6346386Y-17887872D01*
X6332100Y-17859300D01*
X6303528Y-17845014D01*
X6246386Y-17845014D01*
X6217814Y-17859300D01*
X6346386Y-18030729D02*
X6317814Y-18045014D01*
X6246386Y-18045014D01*
X6217814Y-18030729D01*
X6203528Y-18002157D01*
X6203528Y-17973586D01*
X6217814Y-17945014D01*
X6246386Y-17930729D01*
X6317814Y-17930729D01*
X6346386Y-17916443D01*
X6489243Y-17845014D02*
X6489243Y-18145014D01*
X6489243Y-17859300D02*
X6517814Y-17845014D01*
X6574957Y-17845014D01*
X6603528Y-17859300D01*
X6617814Y-17873586D01*
X6632100Y-17902157D01*
X6632100Y-17987872D01*
X6617814Y-18016443D01*
X6603528Y-18030729D01*
X6574957Y-18045014D01*
X6517814Y-18045014D01*
X6489243Y-18030729D01*
X6760671Y-18016443D02*
X6774957Y-18030729D01*
X6760671Y-18045014D01*
X6746386Y-18030729D01*
X6760671Y-18016443D01*
X6760671Y-18045014D01*
X6760671Y-17859300D02*
X6774957Y-17873586D01*
X6760671Y-17887872D01*
X6746386Y-17873586D01*
X6760671Y-17859300D01*
X6760671Y-17887872D01*
M02*
