%TF.GenerationSoftware,KiCad,Pcbnew,6.0.11-2627ca5db0~126~ubuntu22.04.1*%
%TF.CreationDate,2023-02-08T16:30:42-05:00*%
%TF.ProjectId,xiao-isp-programmer,7869616f-2d69-4737-902d-70726f677261,2.1*%
%TF.SameCoordinates,Original*%
%TF.FileFunction,Soldermask,Top*%
%TF.FilePolarity,Negative*%
%FSLAX46Y46*%
G04 Gerber Fmt 4.6, Leading zero omitted, Abs format (unit mm)*
G04 Created by KiCad (PCBNEW 6.0.11-2627ca5db0~126~ubuntu22.04.1) date 2023-02-08 16:30:42*
%MOMM*%
%LPD*%
G01*
G04 APERTURE LIST*
G04 Aperture macros list*
%AMRoundRect*
0 Rectangle with rounded corners*
0 $1 Rounding radius*
0 $2 $3 $4 $5 $6 $7 $8 $9 X,Y pos of 4 corners*
0 Add a 4 corners polygon primitive as box body*
4,1,4,$2,$3,$4,$5,$6,$7,$8,$9,$2,$3,0*
0 Add four circle primitives for the rounded corners*
1,1,$1+$1,$2,$3*
1,1,$1+$1,$4,$5*
1,1,$1+$1,$6,$7*
1,1,$1+$1,$8,$9*
0 Add four rect primitives between the rounded corners*
20,1,$1+$1,$2,$3,$4,$5,0*
20,1,$1+$1,$4,$5,$6,$7,0*
20,1,$1+$1,$6,$7,$8,$9,0*
20,1,$1+$1,$8,$9,$2,$3,0*%
G04 Aperture macros list end*
%ADD10O,2.748280X1.998980*%
%ADD11O,1.016000X2.032000*%
%ADD12C,1.143000*%
%ADD13R,1.700000X1.700000*%
%ADD14O,1.700000X1.700000*%
%ADD15R,0.900000X0.800000*%
%ADD16RoundRect,0.249999X0.350001X0.450001X-0.350001X0.450001X-0.350001X-0.450001X0.350001X-0.450001X0*%
%ADD17RoundRect,0.100000X0.637500X0.100000X-0.637500X0.100000X-0.637500X-0.100000X0.637500X-0.100000X0*%
%ADD18RoundRect,0.249999X0.450001X-0.350001X0.450001X0.350001X-0.450001X0.350001X-0.450001X-0.350001X0*%
G04 APERTURE END LIST*
D10*
%TO.C,U1*%
X65180681Y-147878801D03*
X65180681Y-150418801D03*
X65180681Y-152958801D03*
X65180681Y-155498801D03*
X65180681Y-158038801D03*
X65180681Y-160578801D03*
X65180681Y-163118801D03*
X49016121Y-163118801D03*
X49016121Y-160578801D03*
X49016121Y-158038801D03*
X49016121Y-155498801D03*
X49016121Y-152958801D03*
X49016121Y-150418801D03*
X49016121Y-147878801D03*
D11*
X55883001Y-164196621D03*
X58433001Y-164196621D03*
D12*
X55881804Y-147192434D03*
X58421804Y-147192434D03*
X55881804Y-149732434D03*
X58421804Y-149732434D03*
%TD*%
D13*
%TO.C,J1*%
X49530000Y-168402000D03*
D14*
X52070000Y-168402000D03*
X49530000Y-170942000D03*
X52070000Y-170942000D03*
X49530000Y-173482000D03*
X52070000Y-173482000D03*
%TD*%
D15*
%TO.C,Q1*%
X57404000Y-171130000D03*
X57404000Y-169230000D03*
X55404000Y-170180000D03*
%TD*%
D16*
%TO.C,R2*%
X57404000Y-167386000D03*
X55404000Y-167386000D03*
%TD*%
D17*
%TO.C,U2*%
X65092500Y-173400000D03*
X65092500Y-172750000D03*
X65092500Y-172100000D03*
X65092500Y-171450000D03*
X65092500Y-170800000D03*
X65092500Y-170150000D03*
X65092500Y-169500000D03*
X59367500Y-169500000D03*
X59367500Y-170150000D03*
X59367500Y-170800000D03*
X59367500Y-171450000D03*
X59367500Y-172100000D03*
X59367500Y-172750000D03*
X59367500Y-173400000D03*
%TD*%
D18*
%TO.C,R1*%
X45466000Y-152908000D03*
X45466000Y-150908000D03*
%TD*%
M02*
