%TF.GenerationSoftware,KiCad,Pcbnew,6.0.11-2627ca5db0~126~ubuntu22.04.1*%
%TF.CreationDate,2023-02-08T16:30:42-05:00*%
%TF.ProjectId,xiao-isp-programmer,7869616f-2d69-4737-902d-70726f677261,2.1*%
%TF.SameCoordinates,Original*%
%TF.FileFunction,Copper,L2,Bot*%
%TF.FilePolarity,Positive*%
%FSLAX46Y46*%
G04 Gerber Fmt 4.6, Leading zero omitted, Abs format (unit mm)*
G04 Created by KiCad (PCBNEW 6.0.11-2627ca5db0~126~ubuntu22.04.1) date 2023-02-08 16:30:42*
%MOMM*%
%LPD*%
G01*
G04 APERTURE LIST*
%TA.AperFunction,ComponentPad*%
%ADD10R,1.700000X1.700000*%
%TD*%
%TA.AperFunction,ComponentPad*%
%ADD11O,1.700000X1.700000*%
%TD*%
%TA.AperFunction,ViaPad*%
%ADD12C,0.800000*%
%TD*%
%TA.AperFunction,Conductor*%
%ADD13C,0.250000*%
%TD*%
G04 APERTURE END LIST*
D10*
%TO.P,J1,1,Pin_1*%
%TO.N,MISO*%
X49530000Y-168402000D03*
D11*
%TO.P,J1,2,Pin_2*%
%TO.N,+5V*%
X52070000Y-168402000D03*
%TO.P,J1,3,Pin_3*%
%TO.N,SCK*%
X49530000Y-170942000D03*
%TO.P,J1,4,Pin_4*%
%TO.N,MOSI*%
X52070000Y-170942000D03*
%TO.P,J1,5,Pin_5*%
%TO.N,~{RESET}*%
X49530000Y-173482000D03*
%TO.P,J1,6,Pin_6*%
%TO.N,GND*%
X52070000Y-173482000D03*
%TD*%
D12*
%TO.N,GND*%
X65092500Y-168216500D03*
X45466000Y-149352000D03*
X67513199Y-150418801D03*
X56388000Y-168910000D03*
%TO.N,SCK*%
X60960000Y-171450000D03*
%TO.N,~{RESET}*%
X56355643Y-170685599D03*
%TO.N,OE*%
X54835660Y-158778340D03*
X59367500Y-168148000D03*
%TO.N,RESET*%
X52930660Y-154333340D03*
X63979660Y-165382340D03*
%TD*%
D13*
%TO.N,SCK*%
X50800000Y-169672000D02*
X49530000Y-170942000D01*
X59182000Y-169672000D02*
X50800000Y-169672000D01*
X60960000Y-171450000D02*
X59182000Y-169672000D01*
%TO.N,~{RESET}*%
X50705001Y-172306999D02*
X49530000Y-173482000D01*
X54734243Y-172306999D02*
X50705001Y-172306999D01*
X56355643Y-170685599D02*
X54734243Y-172306999D01*
%TO.N,OE*%
X59367500Y-163310180D02*
X54835660Y-158778340D01*
X59367500Y-167708500D02*
X59367500Y-163310180D01*
%TO.N,RESET*%
X52930660Y-154333340D02*
X63979660Y-165382340D01*
%TD*%
%TA.AperFunction,Conductor*%
%TO.N,GND*%
G36*
X69537621Y-145562502D02*
G01*
X69584114Y-145616158D01*
X69595500Y-145668500D01*
X69595500Y-175133500D01*
X69575498Y-175201621D01*
X69521842Y-175248114D01*
X69469500Y-175259500D01*
X44830500Y-175259500D01*
X44762379Y-175239498D01*
X44715886Y-175185842D01*
X44704500Y-175133500D01*
X44704500Y-173448695D01*
X48167251Y-173448695D01*
X48180110Y-173671715D01*
X48181247Y-173676761D01*
X48181248Y-173676767D01*
X48194597Y-173736000D01*
X48229222Y-173889639D01*
X48313266Y-174096616D01*
X48429987Y-174287088D01*
X48576250Y-174455938D01*
X48748126Y-174598632D01*
X48941000Y-174711338D01*
X49149692Y-174791030D01*
X49154760Y-174792061D01*
X49154763Y-174792062D01*
X49249862Y-174811410D01*
X49368597Y-174835567D01*
X49373772Y-174835757D01*
X49373774Y-174835757D01*
X49586673Y-174843564D01*
X49586677Y-174843564D01*
X49591837Y-174843753D01*
X49596957Y-174843097D01*
X49596959Y-174843097D01*
X49808288Y-174816025D01*
X49808289Y-174816025D01*
X49813416Y-174815368D01*
X49818366Y-174813883D01*
X50022429Y-174752661D01*
X50022434Y-174752659D01*
X50027384Y-174751174D01*
X50227994Y-174652896D01*
X50409860Y-174523173D01*
X50568096Y-174365489D01*
X50627594Y-174282689D01*
X50698453Y-174184077D01*
X50699640Y-174184930D01*
X50746960Y-174141362D01*
X50816897Y-174129145D01*
X50882338Y-174156678D01*
X50910166Y-174188511D01*
X50967694Y-174282388D01*
X50973777Y-174290699D01*
X51113213Y-174451667D01*
X51120580Y-174458883D01*
X51284434Y-174594916D01*
X51292881Y-174600831D01*
X51476756Y-174708279D01*
X51486042Y-174712729D01*
X51685001Y-174788703D01*
X51694899Y-174791579D01*
X51798250Y-174812606D01*
X51812299Y-174811410D01*
X51816000Y-174801065D01*
X51816000Y-174800517D01*
X52324000Y-174800517D01*
X52328064Y-174814359D01*
X52341478Y-174816393D01*
X52348184Y-174815534D01*
X52358262Y-174813392D01*
X52562255Y-174752191D01*
X52571842Y-174748433D01*
X52763095Y-174654739D01*
X52771945Y-174649464D01*
X52945328Y-174525792D01*
X52953200Y-174519139D01*
X53104052Y-174368812D01*
X53110730Y-174360965D01*
X53235003Y-174188020D01*
X53240313Y-174179183D01*
X53334670Y-173988267D01*
X53338469Y-173978672D01*
X53400377Y-173774910D01*
X53402555Y-173764837D01*
X53403986Y-173753962D01*
X53401775Y-173739778D01*
X53388617Y-173736000D01*
X52342115Y-173736000D01*
X52326876Y-173740475D01*
X52325671Y-173741865D01*
X52324000Y-173749548D01*
X52324000Y-174800517D01*
X51816000Y-174800517D01*
X51816000Y-173354000D01*
X51836002Y-173285879D01*
X51889658Y-173239386D01*
X51942000Y-173228000D01*
X53388344Y-173228000D01*
X53401875Y-173224027D01*
X53403180Y-173214947D01*
X53373602Y-173097195D01*
X53376406Y-173026254D01*
X53417118Y-172968090D01*
X53482813Y-172941171D01*
X53495806Y-172940499D01*
X54655476Y-172940499D01*
X54666659Y-172941026D01*
X54674152Y-172942701D01*
X54682078Y-172942452D01*
X54682079Y-172942452D01*
X54742229Y-172940561D01*
X54746188Y-172940499D01*
X54774099Y-172940499D01*
X54778034Y-172940002D01*
X54778099Y-172939994D01*
X54789936Y-172939061D01*
X54822194Y-172938047D01*
X54826213Y-172937921D01*
X54834132Y-172937672D01*
X54853586Y-172932020D01*
X54872943Y-172928012D01*
X54885173Y-172926467D01*
X54885174Y-172926467D01*
X54893040Y-172925473D01*
X54900411Y-172922554D01*
X54900413Y-172922554D01*
X54934155Y-172909195D01*
X54945385Y-172905350D01*
X54980226Y-172895228D01*
X54980227Y-172895228D01*
X54987836Y-172893017D01*
X54994655Y-172888984D01*
X54994660Y-172888982D01*
X55005271Y-172882706D01*
X55023019Y-172874011D01*
X55041860Y-172866551D01*
X55077630Y-172840563D01*
X55087550Y-172834047D01*
X55118778Y-172815579D01*
X55118781Y-172815577D01*
X55125605Y-172811541D01*
X55139926Y-172797220D01*
X55154960Y-172784379D01*
X55164937Y-172777130D01*
X55171350Y-172772471D01*
X55199541Y-172738394D01*
X55207531Y-172729615D01*
X56306143Y-171631004D01*
X56368455Y-171596978D01*
X56395238Y-171594099D01*
X56451130Y-171594099D01*
X56457582Y-171592727D01*
X56457587Y-171592727D01*
X56544531Y-171574246D01*
X56637931Y-171554393D01*
X56643962Y-171551708D01*
X56806365Y-171479402D01*
X56806367Y-171479401D01*
X56812395Y-171476717D01*
X56966896Y-171364465D01*
X56975936Y-171354425D01*
X57090264Y-171227451D01*
X57090265Y-171227450D01*
X57094683Y-171222543D01*
X57190170Y-171057155D01*
X57249185Y-170875527D01*
X57269147Y-170685599D01*
X57254002Y-170541500D01*
X57249875Y-170502234D01*
X57249875Y-170502232D01*
X57249185Y-170495671D01*
X57240985Y-170470434D01*
X57238959Y-170399467D01*
X57275622Y-170338670D01*
X57339335Y-170307345D01*
X57360819Y-170305500D01*
X58867406Y-170305500D01*
X58935527Y-170325502D01*
X58956501Y-170342405D01*
X60012878Y-171398782D01*
X60046904Y-171461094D01*
X60049092Y-171474703D01*
X60066458Y-171639928D01*
X60125473Y-171821556D01*
X60220960Y-171986944D01*
X60348747Y-172128866D01*
X60503248Y-172241118D01*
X60509276Y-172243802D01*
X60509278Y-172243803D01*
X60671681Y-172316109D01*
X60677712Y-172318794D01*
X60738016Y-172331612D01*
X60858056Y-172357128D01*
X60858061Y-172357128D01*
X60864513Y-172358500D01*
X61055487Y-172358500D01*
X61061939Y-172357128D01*
X61061944Y-172357128D01*
X61181984Y-172331612D01*
X61242288Y-172318794D01*
X61248319Y-172316109D01*
X61410722Y-172243803D01*
X61410724Y-172243802D01*
X61416752Y-172241118D01*
X61571253Y-172128866D01*
X61699040Y-171986944D01*
X61794527Y-171821556D01*
X61853542Y-171639928D01*
X61861836Y-171561020D01*
X61872814Y-171456565D01*
X61873504Y-171450000D01*
X61853542Y-171260072D01*
X61794527Y-171078444D01*
X61699040Y-170913056D01*
X61659340Y-170868964D01*
X61575675Y-170776045D01*
X61575674Y-170776044D01*
X61571253Y-170771134D01*
X61416752Y-170658882D01*
X61410724Y-170656198D01*
X61410722Y-170656197D01*
X61248319Y-170583891D01*
X61248318Y-170583891D01*
X61242288Y-170581206D01*
X61148887Y-170561353D01*
X61061944Y-170542872D01*
X61061939Y-170542872D01*
X61055487Y-170541500D01*
X60999594Y-170541500D01*
X60931473Y-170521498D01*
X60910499Y-170504595D01*
X59685652Y-169279747D01*
X59678112Y-169271461D01*
X59674000Y-169264982D01*
X59625169Y-169219127D01*
X59589204Y-169157915D01*
X59592041Y-169086975D01*
X59632782Y-169028831D01*
X59660174Y-169012170D01*
X59818219Y-168941805D01*
X59818226Y-168941801D01*
X59824252Y-168939118D01*
X59978753Y-168826866D01*
X60097472Y-168695015D01*
X60102121Y-168689852D01*
X60102122Y-168689851D01*
X60106540Y-168684944D01*
X60202027Y-168519556D01*
X60261042Y-168337928D01*
X60281004Y-168148000D01*
X60261042Y-167958072D01*
X60202027Y-167776444D01*
X60194029Y-167762590D01*
X60109841Y-167616774D01*
X60106540Y-167611056D01*
X60033363Y-167529785D01*
X60002647Y-167465779D01*
X60001000Y-167445476D01*
X60001000Y-163388948D01*
X60001527Y-163377765D01*
X60003202Y-163370272D01*
X60001062Y-163302181D01*
X60001000Y-163298224D01*
X60001000Y-163270324D01*
X60000496Y-163266333D01*
X59999563Y-163254491D01*
X59998423Y-163218216D01*
X59998174Y-163210291D01*
X59992521Y-163190832D01*
X59988512Y-163171473D01*
X59988346Y-163170163D01*
X59985974Y-163151383D01*
X59983058Y-163144017D01*
X59983056Y-163144011D01*
X59969700Y-163110278D01*
X59965855Y-163099048D01*
X59955730Y-163064197D01*
X59955730Y-163064196D01*
X59953519Y-163056587D01*
X59943205Y-163039146D01*
X59934508Y-163021393D01*
X59929972Y-163009938D01*
X59927052Y-163002563D01*
X59901063Y-162966792D01*
X59894547Y-162956872D01*
X59876078Y-162925643D01*
X59872042Y-162918818D01*
X59857721Y-162904497D01*
X59844880Y-162889463D01*
X59837631Y-162879486D01*
X59832972Y-162873073D01*
X59798895Y-162844882D01*
X59790116Y-162836892D01*
X55782782Y-158829557D01*
X55748756Y-158767245D01*
X55746567Y-158753632D01*
X55729892Y-158594975D01*
X55729892Y-158594973D01*
X55729202Y-158588412D01*
X55670187Y-158406784D01*
X55574700Y-158241396D01*
X55466431Y-158121151D01*
X55459923Y-158107590D01*
X55459821Y-158107568D01*
X55446145Y-158098916D01*
X55297754Y-157991103D01*
X55297753Y-157991102D01*
X55292412Y-157987222D01*
X55286384Y-157984538D01*
X55286382Y-157984537D01*
X55123979Y-157912231D01*
X55123978Y-157912231D01*
X55117948Y-157909546D01*
X55024548Y-157889693D01*
X54937604Y-157871212D01*
X54937599Y-157871212D01*
X54931147Y-157869840D01*
X54740173Y-157869840D01*
X54733721Y-157871212D01*
X54733716Y-157871212D01*
X54646772Y-157889693D01*
X54553372Y-157909546D01*
X54547342Y-157912231D01*
X54547341Y-157912231D01*
X54384938Y-157984537D01*
X54384936Y-157984538D01*
X54378908Y-157987222D01*
X54224407Y-158099474D01*
X54096620Y-158241396D01*
X54001133Y-158406784D01*
X53942118Y-158588412D01*
X53922156Y-158778340D01*
X53942118Y-158968268D01*
X54001133Y-159149896D01*
X54096620Y-159315284D01*
X54224407Y-159457206D01*
X54378908Y-159569458D01*
X54384936Y-159572142D01*
X54384938Y-159572143D01*
X54547341Y-159644449D01*
X54553372Y-159647134D01*
X54646773Y-159666987D01*
X54733716Y-159685468D01*
X54733721Y-159685468D01*
X54740173Y-159686840D01*
X54796066Y-159686840D01*
X54864187Y-159706842D01*
X54885161Y-159723745D01*
X58697095Y-163535679D01*
X58731121Y-163597991D01*
X58734000Y-163624774D01*
X58734000Y-167445476D01*
X58713998Y-167513597D01*
X58701642Y-167529779D01*
X58628460Y-167611056D01*
X58625159Y-167616774D01*
X58540972Y-167762590D01*
X58532973Y-167776444D01*
X58473958Y-167958072D01*
X58453996Y-168148000D01*
X58473958Y-168337928D01*
X58532973Y-168519556D01*
X58628460Y-168684944D01*
X58632878Y-168689851D01*
X58632879Y-168689852D01*
X58756247Y-168826866D01*
X58754368Y-168828558D01*
X58785636Y-168879328D01*
X58784274Y-168950312D01*
X58744751Y-169009290D01*
X58679616Y-169037539D01*
X58664081Y-169038500D01*
X53466477Y-169038500D01*
X53398356Y-169018498D01*
X53351863Y-168964842D01*
X53341759Y-168894568D01*
X53345917Y-168875879D01*
X53402370Y-168690069D01*
X53431529Y-168468590D01*
X53433156Y-168402000D01*
X53414852Y-168179361D01*
X53360431Y-167962702D01*
X53271354Y-167757840D01*
X53150014Y-167570277D01*
X52999670Y-167405051D01*
X52995619Y-167401852D01*
X52995615Y-167401848D01*
X52828414Y-167269800D01*
X52828410Y-167269798D01*
X52824359Y-167266598D01*
X52628789Y-167158638D01*
X52623920Y-167156914D01*
X52623916Y-167156912D01*
X52423087Y-167085795D01*
X52423083Y-167085794D01*
X52418212Y-167084069D01*
X52413119Y-167083162D01*
X52413116Y-167083161D01*
X52203373Y-167045800D01*
X52203367Y-167045799D01*
X52198284Y-167044894D01*
X52124452Y-167043992D01*
X51980081Y-167042228D01*
X51980079Y-167042228D01*
X51974911Y-167042165D01*
X51754091Y-167075955D01*
X51541756Y-167145357D01*
X51343607Y-167248507D01*
X51339474Y-167251610D01*
X51339471Y-167251612D01*
X51169100Y-167379530D01*
X51164965Y-167382635D01*
X51108537Y-167441684D01*
X51084283Y-167467064D01*
X51022759Y-167502494D01*
X50951846Y-167499037D01*
X50894060Y-167457791D01*
X50875207Y-167424243D01*
X50833767Y-167313703D01*
X50830615Y-167305295D01*
X50743261Y-167188739D01*
X50626705Y-167101385D01*
X50490316Y-167050255D01*
X50428134Y-167043500D01*
X48631866Y-167043500D01*
X48569684Y-167050255D01*
X48433295Y-167101385D01*
X48316739Y-167188739D01*
X48229385Y-167305295D01*
X48178255Y-167441684D01*
X48171500Y-167503866D01*
X48171500Y-169300134D01*
X48178255Y-169362316D01*
X48229385Y-169498705D01*
X48316739Y-169615261D01*
X48433295Y-169702615D01*
X48441704Y-169705767D01*
X48441705Y-169705768D01*
X48550451Y-169746535D01*
X48607216Y-169789176D01*
X48631916Y-169855738D01*
X48616709Y-169925087D01*
X48597316Y-169951568D01*
X48470629Y-170084138D01*
X48344743Y-170268680D01*
X48250688Y-170471305D01*
X48190989Y-170686570D01*
X48167251Y-170908695D01*
X48167548Y-170913848D01*
X48167548Y-170913851D01*
X48175811Y-171057155D01*
X48180110Y-171131715D01*
X48181247Y-171136761D01*
X48181248Y-171136767D01*
X48199291Y-171216825D01*
X48229222Y-171349639D01*
X48313266Y-171556616D01*
X48315965Y-171561020D01*
X48383128Y-171670620D01*
X48429987Y-171747088D01*
X48576250Y-171915938D01*
X48748126Y-172058632D01*
X48818595Y-172099811D01*
X48821445Y-172101476D01*
X48870169Y-172153114D01*
X48883240Y-172222897D01*
X48856509Y-172288669D01*
X48816055Y-172322027D01*
X48803607Y-172328507D01*
X48799474Y-172331610D01*
X48799471Y-172331612D01*
X48765487Y-172357128D01*
X48624965Y-172462635D01*
X48470629Y-172624138D01*
X48344743Y-172808680D01*
X48307468Y-172888982D01*
X48270748Y-172968090D01*
X48250688Y-173011305D01*
X48190989Y-173226570D01*
X48167251Y-173448695D01*
X44704500Y-173448695D01*
X44704500Y-154333340D01*
X52017156Y-154333340D01*
X52037118Y-154523268D01*
X52096133Y-154704896D01*
X52191620Y-154870284D01*
X52319407Y-155012206D01*
X52473908Y-155124458D01*
X52479936Y-155127142D01*
X52479938Y-155127143D01*
X52642341Y-155199449D01*
X52648372Y-155202134D01*
X52741772Y-155221987D01*
X52828716Y-155240468D01*
X52828721Y-155240468D01*
X52835173Y-155241840D01*
X52891066Y-155241840D01*
X52959187Y-155261842D01*
X52980161Y-155278745D01*
X55609301Y-157907885D01*
X55620260Y-157927955D01*
X55626157Y-157929565D01*
X55649162Y-157947746D01*
X63032538Y-165331122D01*
X63066564Y-165393434D01*
X63068752Y-165407043D01*
X63086118Y-165572268D01*
X63145133Y-165753896D01*
X63240620Y-165919284D01*
X63368407Y-166061206D01*
X63522908Y-166173458D01*
X63528936Y-166176142D01*
X63528938Y-166176143D01*
X63691341Y-166248449D01*
X63697372Y-166251134D01*
X63790772Y-166270987D01*
X63877716Y-166289468D01*
X63877721Y-166289468D01*
X63884173Y-166290840D01*
X64075147Y-166290840D01*
X64081599Y-166289468D01*
X64081604Y-166289468D01*
X64168548Y-166270987D01*
X64261948Y-166251134D01*
X64267979Y-166248449D01*
X64430382Y-166176143D01*
X64430384Y-166176142D01*
X64436412Y-166173458D01*
X64590913Y-166061206D01*
X64718700Y-165919284D01*
X64814187Y-165753896D01*
X64873202Y-165572268D01*
X64893164Y-165382340D01*
X64873202Y-165192412D01*
X64814187Y-165010784D01*
X64718700Y-164845396D01*
X64590913Y-164703474D01*
X64436412Y-164591222D01*
X64430384Y-164588538D01*
X64430382Y-164588537D01*
X64267979Y-164516231D01*
X64267978Y-164516231D01*
X64261948Y-164513546D01*
X64168548Y-164493693D01*
X64081604Y-164475212D01*
X64081599Y-164475212D01*
X64075147Y-164473840D01*
X64019254Y-164473840D01*
X63951133Y-164453838D01*
X63930159Y-164436935D01*
X53877782Y-154384557D01*
X53843756Y-154322245D01*
X53841567Y-154308632D01*
X53824892Y-154149975D01*
X53824892Y-154149973D01*
X53824202Y-154143412D01*
X53765187Y-153961784D01*
X53669700Y-153796396D01*
X53541913Y-153654474D01*
X53387412Y-153542222D01*
X53381384Y-153539538D01*
X53381382Y-153539537D01*
X53218979Y-153467231D01*
X53218978Y-153467231D01*
X53212948Y-153464546D01*
X53119547Y-153444693D01*
X53032604Y-153426212D01*
X53032599Y-153426212D01*
X53026147Y-153424840D01*
X52835173Y-153424840D01*
X52828721Y-153426212D01*
X52828716Y-153426212D01*
X52741773Y-153444693D01*
X52648372Y-153464546D01*
X52642342Y-153467231D01*
X52642341Y-153467231D01*
X52479938Y-153539537D01*
X52479936Y-153539538D01*
X52473908Y-153542222D01*
X52319407Y-153654474D01*
X52191620Y-153796396D01*
X52096133Y-153961784D01*
X52037118Y-154143412D01*
X52017156Y-154333340D01*
X44704500Y-154333340D01*
X44704500Y-145668500D01*
X44724502Y-145600379D01*
X44778158Y-145553886D01*
X44830500Y-145542500D01*
X69469500Y-145542500D01*
X69537621Y-145562502D01*
G37*
%TD.AperFunction*%
%TD*%
M02*
