%TF.GenerationSoftware,KiCad,Pcbnew,(5.1.9)-1*%
%TF.CreationDate,2021-01-02T03:16:17-08:00*%
%TF.ProjectId,xiao-isp-programmer,7869616f-2d69-4737-902d-70726f677261,rev?*%
%TF.SameCoordinates,Original*%
%TF.FileFunction,Copper,L1,Top*%
%TF.FilePolarity,Positive*%
%FSLAX46Y46*%
G04 Gerber Fmt 4.6, Leading zero omitted, Abs format (unit mm)*
G04 Created by KiCad (PCBNEW (5.1.9)-1) date 2021-01-02 03:16:17*
%MOMM*%
%LPD*%
G01*
G04 APERTURE LIST*
%TA.AperFunction,ComponentPad*%
%ADD10R,1.700000X1.700000*%
%TD*%
%TA.AperFunction,ComponentPad*%
%ADD11O,1.700000X1.700000*%
%TD*%
%TA.AperFunction,SMDPad,CuDef*%
%ADD12R,0.900000X0.800000*%
%TD*%
%TA.AperFunction,SMDPad,CuDef*%
%ADD13O,2.748280X1.998980*%
%TD*%
%TA.AperFunction,SMDPad,CuDef*%
%ADD14O,1.016000X2.032000*%
%TD*%
%TA.AperFunction,SMDPad,CuDef*%
%ADD15C,1.143000*%
%TD*%
%TA.AperFunction,ViaPad*%
%ADD16C,0.800000*%
%TD*%
%TA.AperFunction,Conductor*%
%ADD17C,0.250000*%
%TD*%
%TA.AperFunction,Conductor*%
%ADD18C,0.254000*%
%TD*%
%TA.AperFunction,Conductor*%
%ADD19C,0.100000*%
%TD*%
G04 APERTURE END LIST*
D10*
%TO.P,J1,1*%
%TO.N,MISO*%
X49530000Y-168402000D03*
D11*
%TO.P,J1,2*%
%TO.N,+5V*%
X52070000Y-168402000D03*
%TO.P,J1,3*%
%TO.N,SCK*%
X49530000Y-170942000D03*
%TO.P,J1,4*%
%TO.N,MOSI*%
X52070000Y-170942000D03*
%TO.P,J1,5*%
%TO.N,~RESET*%
X49530000Y-173482000D03*
%TO.P,J1,6*%
%TO.N,GND*%
X52070000Y-173482000D03*
%TD*%
D12*
%TO.P,Q1,1*%
%TO.N,Net-(Q1-Pad1)*%
X57404000Y-171130000D03*
%TO.P,Q1,2*%
%TO.N,GND*%
X57404000Y-169230000D03*
%TO.P,Q1,3*%
%TO.N,~RESET*%
X55404000Y-170180000D03*
%TD*%
%TO.P,R1,1*%
%TO.N,+5V*%
%TA.AperFunction,SMDPad,CuDef*%
G36*
G01*
X58004000Y-166935999D02*
X58004000Y-167836001D01*
G75*
G02*
X57754001Y-168086000I-249999J0D01*
G01*
X57053999Y-168086000D01*
G75*
G02*
X56804000Y-167836001I0J249999D01*
G01*
X56804000Y-166935999D01*
G75*
G02*
X57053999Y-166686000I249999J0D01*
G01*
X57754001Y-166686000D01*
G75*
G02*
X58004000Y-166935999I0J-249999D01*
G01*
G37*
%TD.AperFunction*%
%TO.P,R1,2*%
%TO.N,~RESET*%
%TA.AperFunction,SMDPad,CuDef*%
G36*
G01*
X56004000Y-166935999D02*
X56004000Y-167836001D01*
G75*
G02*
X55754001Y-168086000I-249999J0D01*
G01*
X55053999Y-168086000D01*
G75*
G02*
X54804000Y-167836001I0J249999D01*
G01*
X54804000Y-166935999D01*
G75*
G02*
X55053999Y-166686000I249999J0D01*
G01*
X55754001Y-166686000D01*
G75*
G02*
X56004000Y-166935999I0J-249999D01*
G01*
G37*
%TD.AperFunction*%
%TD*%
D13*
%TO.P,U1,14*%
%TO.N,+5V*%
X65180681Y-147878801D03*
%TO.P,U1,13*%
%TO.N,GND*%
X65180681Y-150418801D03*
%TO.P,U1,12*%
%TO.N,+3V3*%
X65180681Y-152958801D03*
%TO.P,U1,11*%
%TO.N,Net-(U1-Pad11)*%
X65180681Y-155498801D03*
%TO.P,U1,10*%
%TO.N,Net-(U1-Pad10)*%
X65180681Y-158038801D03*
%TO.P,U1,9*%
%TO.N,Net-(U1-Pad9)*%
X65180681Y-160578801D03*
%TO.P,U1,8*%
%TO.N,N/C*%
X65180681Y-163118801D03*
%TO.P,U1,7*%
X49016121Y-163118801D03*
%TO.P,U1,6*%
X49016121Y-160578801D03*
%TO.P,U1,5*%
X49016121Y-158038801D03*
%TO.P,U1,4*%
X49016121Y-155498801D03*
%TO.P,U1,3*%
%TO.N,OE*%
X49016121Y-152958801D03*
%TO.P,U1,2*%
%TO.N,RESET*%
X49016121Y-150418801D03*
%TO.P,U1,1*%
%TO.N,N/C*%
X49016121Y-147878801D03*
D14*
%TO.P,U1,15*%
X55883001Y-164196621D03*
%TO.P,U1,16*%
X58433001Y-164196621D03*
D15*
%TO.P,U1,17*%
X55881804Y-147192434D03*
%TO.P,U1,18*%
X58421804Y-147192434D03*
%TO.P,U1,19*%
X55881804Y-149732434D03*
%TO.P,U1,20*%
X58421804Y-149732434D03*
%TD*%
%TO.P,U2,1*%
%TO.N,+3V3*%
%TA.AperFunction,SMDPad,CuDef*%
G36*
G01*
X65830000Y-173300000D02*
X65830000Y-173500000D01*
G75*
G02*
X65730000Y-173600000I-100000J0D01*
G01*
X64455000Y-173600000D01*
G75*
G02*
X64355000Y-173500000I0J100000D01*
G01*
X64355000Y-173300000D01*
G75*
G02*
X64455000Y-173200000I100000J0D01*
G01*
X65730000Y-173200000D01*
G75*
G02*
X65830000Y-173300000I0J-100000D01*
G01*
G37*
%TD.AperFunction*%
%TO.P,U2,2*%
%TO.N,Net-(U1-Pad11)*%
%TA.AperFunction,SMDPad,CuDef*%
G36*
G01*
X65830000Y-172650000D02*
X65830000Y-172850000D01*
G75*
G02*
X65730000Y-172950000I-100000J0D01*
G01*
X64455000Y-172950000D01*
G75*
G02*
X64355000Y-172850000I0J100000D01*
G01*
X64355000Y-172650000D01*
G75*
G02*
X64455000Y-172550000I100000J0D01*
G01*
X65730000Y-172550000D01*
G75*
G02*
X65830000Y-172650000I0J-100000D01*
G01*
G37*
%TD.AperFunction*%
%TO.P,U2,3*%
%TO.N,Net-(U1-Pad10)*%
%TA.AperFunction,SMDPad,CuDef*%
G36*
G01*
X65830000Y-172000000D02*
X65830000Y-172200000D01*
G75*
G02*
X65730000Y-172300000I-100000J0D01*
G01*
X64455000Y-172300000D01*
G75*
G02*
X64355000Y-172200000I0J100000D01*
G01*
X64355000Y-172000000D01*
G75*
G02*
X64455000Y-171900000I100000J0D01*
G01*
X65730000Y-171900000D01*
G75*
G02*
X65830000Y-172000000I0J-100000D01*
G01*
G37*
%TD.AperFunction*%
%TO.P,U2,4*%
%TO.N,Net-(U1-Pad9)*%
%TA.AperFunction,SMDPad,CuDef*%
G36*
G01*
X65830000Y-171350000D02*
X65830000Y-171550000D01*
G75*
G02*
X65730000Y-171650000I-100000J0D01*
G01*
X64455000Y-171650000D01*
G75*
G02*
X64355000Y-171550000I0J100000D01*
G01*
X64355000Y-171350000D01*
G75*
G02*
X64455000Y-171250000I100000J0D01*
G01*
X65730000Y-171250000D01*
G75*
G02*
X65830000Y-171350000I0J-100000D01*
G01*
G37*
%TD.AperFunction*%
%TO.P,U2,5*%
%TO.N,RESET*%
%TA.AperFunction,SMDPad,CuDef*%
G36*
G01*
X65830000Y-170700000D02*
X65830000Y-170900000D01*
G75*
G02*
X65730000Y-171000000I-100000J0D01*
G01*
X64455000Y-171000000D01*
G75*
G02*
X64355000Y-170900000I0J100000D01*
G01*
X64355000Y-170700000D01*
G75*
G02*
X64455000Y-170600000I100000J0D01*
G01*
X65730000Y-170600000D01*
G75*
G02*
X65830000Y-170700000I0J-100000D01*
G01*
G37*
%TD.AperFunction*%
%TO.P,U2,6*%
%TO.N,N/C*%
%TA.AperFunction,SMDPad,CuDef*%
G36*
G01*
X65830000Y-170050000D02*
X65830000Y-170250000D01*
G75*
G02*
X65730000Y-170350000I-100000J0D01*
G01*
X64455000Y-170350000D01*
G75*
G02*
X64355000Y-170250000I0J100000D01*
G01*
X64355000Y-170050000D01*
G75*
G02*
X64455000Y-169950000I100000J0D01*
G01*
X65730000Y-169950000D01*
G75*
G02*
X65830000Y-170050000I0J-100000D01*
G01*
G37*
%TD.AperFunction*%
%TO.P,U2,7*%
%TO.N,GND*%
%TA.AperFunction,SMDPad,CuDef*%
G36*
G01*
X65830000Y-169400000D02*
X65830000Y-169600000D01*
G75*
G02*
X65730000Y-169700000I-100000J0D01*
G01*
X64455000Y-169700000D01*
G75*
G02*
X64355000Y-169600000I0J100000D01*
G01*
X64355000Y-169400000D01*
G75*
G02*
X64455000Y-169300000I100000J0D01*
G01*
X65730000Y-169300000D01*
G75*
G02*
X65830000Y-169400000I0J-100000D01*
G01*
G37*
%TD.AperFunction*%
%TO.P,U2,8*%
%TO.N,OE*%
%TA.AperFunction,SMDPad,CuDef*%
G36*
G01*
X60105000Y-169400000D02*
X60105000Y-169600000D01*
G75*
G02*
X60005000Y-169700000I-100000J0D01*
G01*
X58730000Y-169700000D01*
G75*
G02*
X58630000Y-169600000I0J100000D01*
G01*
X58630000Y-169400000D01*
G75*
G02*
X58730000Y-169300000I100000J0D01*
G01*
X60005000Y-169300000D01*
G75*
G02*
X60105000Y-169400000I0J-100000D01*
G01*
G37*
%TD.AperFunction*%
%TO.P,U2,9*%
%TO.N,N/C*%
%TA.AperFunction,SMDPad,CuDef*%
G36*
G01*
X60105000Y-170050000D02*
X60105000Y-170250000D01*
G75*
G02*
X60005000Y-170350000I-100000J0D01*
G01*
X58730000Y-170350000D01*
G75*
G02*
X58630000Y-170250000I0J100000D01*
G01*
X58630000Y-170050000D01*
G75*
G02*
X58730000Y-169950000I100000J0D01*
G01*
X60005000Y-169950000D01*
G75*
G02*
X60105000Y-170050000I0J-100000D01*
G01*
G37*
%TD.AperFunction*%
%TO.P,U2,10*%
%TO.N,Net-(Q1-Pad1)*%
%TA.AperFunction,SMDPad,CuDef*%
G36*
G01*
X60105000Y-170700000D02*
X60105000Y-170900000D01*
G75*
G02*
X60005000Y-171000000I-100000J0D01*
G01*
X58730000Y-171000000D01*
G75*
G02*
X58630000Y-170900000I0J100000D01*
G01*
X58630000Y-170700000D01*
G75*
G02*
X58730000Y-170600000I100000J0D01*
G01*
X60005000Y-170600000D01*
G75*
G02*
X60105000Y-170700000I0J-100000D01*
G01*
G37*
%TD.AperFunction*%
%TO.P,U2,11*%
%TO.N,SCK*%
%TA.AperFunction,SMDPad,CuDef*%
G36*
G01*
X60105000Y-171350000D02*
X60105000Y-171550000D01*
G75*
G02*
X60005000Y-171650000I-100000J0D01*
G01*
X58730000Y-171650000D01*
G75*
G02*
X58630000Y-171550000I0J100000D01*
G01*
X58630000Y-171350000D01*
G75*
G02*
X58730000Y-171250000I100000J0D01*
G01*
X60005000Y-171250000D01*
G75*
G02*
X60105000Y-171350000I0J-100000D01*
G01*
G37*
%TD.AperFunction*%
%TO.P,U2,12*%
%TO.N,MISO*%
%TA.AperFunction,SMDPad,CuDef*%
G36*
G01*
X60105000Y-172000000D02*
X60105000Y-172200000D01*
G75*
G02*
X60005000Y-172300000I-100000J0D01*
G01*
X58730000Y-172300000D01*
G75*
G02*
X58630000Y-172200000I0J100000D01*
G01*
X58630000Y-172000000D01*
G75*
G02*
X58730000Y-171900000I100000J0D01*
G01*
X60005000Y-171900000D01*
G75*
G02*
X60105000Y-172000000I0J-100000D01*
G01*
G37*
%TD.AperFunction*%
%TO.P,U2,13*%
%TO.N,MOSI*%
%TA.AperFunction,SMDPad,CuDef*%
G36*
G01*
X60105000Y-172650000D02*
X60105000Y-172850000D01*
G75*
G02*
X60005000Y-172950000I-100000J0D01*
G01*
X58730000Y-172950000D01*
G75*
G02*
X58630000Y-172850000I0J100000D01*
G01*
X58630000Y-172650000D01*
G75*
G02*
X58730000Y-172550000I100000J0D01*
G01*
X60005000Y-172550000D01*
G75*
G02*
X60105000Y-172650000I0J-100000D01*
G01*
G37*
%TD.AperFunction*%
%TO.P,U2,14*%
%TO.N,+5V*%
%TA.AperFunction,SMDPad,CuDef*%
G36*
G01*
X60105000Y-173300000D02*
X60105000Y-173500000D01*
G75*
G02*
X60005000Y-173600000I-100000J0D01*
G01*
X58730000Y-173600000D01*
G75*
G02*
X58630000Y-173500000I0J100000D01*
G01*
X58630000Y-173300000D01*
G75*
G02*
X58730000Y-173200000I100000J0D01*
G01*
X60005000Y-173200000D01*
G75*
G02*
X60105000Y-173300000I0J-100000D01*
G01*
G37*
%TD.AperFunction*%
%TD*%
%TO.P,R2,1*%
%TO.N,OE*%
%TA.AperFunction,SMDPad,CuDef*%
G36*
G01*
X45916001Y-153508000D02*
X45015999Y-153508000D01*
G75*
G02*
X44766000Y-153258001I0J249999D01*
G01*
X44766000Y-152557999D01*
G75*
G02*
X45015999Y-152308000I249999J0D01*
G01*
X45916001Y-152308000D01*
G75*
G02*
X46166000Y-152557999I0J-249999D01*
G01*
X46166000Y-153258001D01*
G75*
G02*
X45916001Y-153508000I-249999J0D01*
G01*
G37*
%TD.AperFunction*%
%TO.P,R2,2*%
%TO.N,GND*%
%TA.AperFunction,SMDPad,CuDef*%
G36*
G01*
X45916001Y-151508000D02*
X45015999Y-151508000D01*
G75*
G02*
X44766000Y-151258001I0J249999D01*
G01*
X44766000Y-150557999D01*
G75*
G02*
X45015999Y-150308000I249999J0D01*
G01*
X45916001Y-150308000D01*
G75*
G02*
X46166000Y-150557999I0J-249999D01*
G01*
X46166000Y-151258001D01*
G75*
G02*
X45916001Y-151508000I-249999J0D01*
G01*
G37*
%TD.AperFunction*%
%TD*%
D16*
%TO.N,GND*%
X65092500Y-168216500D03*
X45466000Y-149352000D03*
X67513199Y-150418801D03*
X56388000Y-168910000D03*
%TO.N,SCK*%
X60960000Y-171450000D03*
%TO.N,~RESET*%
X56355643Y-170685599D03*
%TO.N,OE*%
X54835660Y-158778340D03*
X59367500Y-168148000D03*
%TO.N,RESET*%
X52930660Y-154333340D03*
X63979660Y-165382340D03*
%TD*%
D17*
%TO.N,GND*%
X65092500Y-169500000D02*
X65092500Y-168216500D01*
X45466000Y-150908000D02*
X45466000Y-149352000D01*
X65180681Y-150418801D02*
X67513199Y-150418801D01*
X57404000Y-169230000D02*
X56708000Y-169230000D01*
X56708000Y-169230000D02*
X56388000Y-168910000D01*
%TO.N,MISO*%
X50705001Y-169577001D02*
X49530000Y-168402000D01*
X53365999Y-169577001D02*
X50705001Y-169577001D01*
X55888998Y-172100000D02*
X53365999Y-169577001D01*
X59367500Y-172100000D02*
X55888998Y-172100000D01*
%TO.N,+5V*%
X59367500Y-173400000D02*
X57486000Y-173400000D01*
X59367500Y-173400000D02*
X61386000Y-173400000D01*
%TO.N,SCK*%
X59367500Y-171450000D02*
X60960000Y-171450000D01*
%TO.N,MOSI*%
X59367500Y-172750000D02*
X55656000Y-172750000D01*
X53848000Y-170942000D02*
X52070000Y-170942000D01*
X55656000Y-172750000D02*
X53848000Y-170942000D01*
%TO.N,~RESET*%
X55404000Y-170180000D02*
X55404000Y-167386000D01*
X56385599Y-170685599D02*
X56355643Y-170685599D01*
X55880000Y-170180000D02*
X56385599Y-170685599D01*
X55404000Y-170180000D02*
X55880000Y-170180000D01*
%TO.N,Net-(Q1-Pad1)*%
X57734000Y-170800000D02*
X57404000Y-171130000D01*
X59367500Y-170800000D02*
X57734000Y-170800000D01*
%TO.N,+3V3*%
X68326000Y-156104120D02*
X65180681Y-152958801D01*
X68326000Y-172141468D02*
X68326000Y-156104120D01*
X67067468Y-173400000D02*
X68326000Y-172141468D01*
X65092500Y-173400000D02*
X67067468Y-173400000D01*
%TO.N,Net-(U1-Pad11)*%
X66956068Y-172874990D02*
X65217490Y-172874990D01*
X67779849Y-172051209D02*
X66956068Y-172874990D01*
X67779849Y-158097969D02*
X67779849Y-172051209D01*
X65217490Y-172874990D02*
X65092500Y-172750000D01*
X65180681Y-155498801D02*
X67779849Y-158097969D01*
%TO.N,Net-(U1-Pad10)*%
X66914000Y-172100000D02*
X65092500Y-172100000D01*
X67329840Y-171684160D02*
X66914000Y-172100000D01*
X67329840Y-160187960D02*
X67329840Y-171684160D01*
X65180681Y-158038801D02*
X67329840Y-160187960D01*
%TO.N,Net-(U1-Pad9)*%
X65217490Y-171574990D02*
X65092500Y-171450000D01*
X65656068Y-171574990D02*
X65217490Y-171574990D01*
X66879831Y-170351227D02*
X65656068Y-171574990D01*
X66879831Y-162277951D02*
X66879831Y-170351227D01*
X65180681Y-160578801D02*
X66879831Y-162277951D01*
%TO.N,OE*%
X48965320Y-152908000D02*
X49016121Y-152958801D01*
X45450000Y-152908000D02*
X48965320Y-152908000D01*
X54835660Y-158778340D02*
X49016121Y-152958801D01*
X59367500Y-169500000D02*
X59367500Y-168148000D01*
%TO.N,RESET*%
X64153962Y-170800000D02*
X65092500Y-170800000D01*
X64029990Y-170676028D02*
X64153962Y-170800000D01*
X64029990Y-165432670D02*
X64029990Y-170676028D01*
X49016121Y-150418801D02*
X52930660Y-154333340D01*
X63979660Y-165382340D02*
X64029990Y-165432670D01*
%TD*%
D18*
%TO.N,+5V*%
X69444000Y-175108000D02*
X51446017Y-175108000D01*
X51450604Y-174832790D01*
X51636842Y-174909932D01*
X51923740Y-174967000D01*
X52216260Y-174967000D01*
X52503158Y-174909932D01*
X52773411Y-174797990D01*
X53016632Y-174635475D01*
X53223475Y-174428632D01*
X53385990Y-174185411D01*
X53497932Y-173915158D01*
X53555000Y-173628260D01*
X53555000Y-173335740D01*
X53497932Y-173048842D01*
X53385990Y-172778589D01*
X53223475Y-172535368D01*
X53016632Y-172328525D01*
X52842240Y-172212000D01*
X53016632Y-172095475D01*
X53223475Y-171888632D01*
X53348178Y-171702000D01*
X53533199Y-171702000D01*
X55092200Y-173261002D01*
X55115999Y-173290001D01*
X55144997Y-173313799D01*
X55231723Y-173384974D01*
X55332403Y-173438789D01*
X55363753Y-173455546D01*
X55507014Y-173499003D01*
X55618667Y-173510000D01*
X55618676Y-173510000D01*
X55655999Y-173513676D01*
X55693322Y-173510000D01*
X57995000Y-173510000D01*
X57995000Y-173527002D01*
X58099748Y-173527002D01*
X57995000Y-173631750D01*
X58006132Y-173733883D01*
X58044239Y-173853021D01*
X58104856Y-173962436D01*
X58185654Y-174057922D01*
X58283529Y-174135811D01*
X58394718Y-174193109D01*
X58514948Y-174227614D01*
X58639600Y-174238000D01*
X59081750Y-174235000D01*
X59240500Y-174076250D01*
X59240500Y-173588072D01*
X59494500Y-173588072D01*
X59494500Y-174076250D01*
X59653250Y-174235000D01*
X60095400Y-174238000D01*
X60220052Y-174227614D01*
X60340282Y-174193109D01*
X60451471Y-174135811D01*
X60549346Y-174057922D01*
X60630144Y-173962436D01*
X60690761Y-173853021D01*
X60728868Y-173733883D01*
X60740000Y-173631750D01*
X60581250Y-173473000D01*
X60397622Y-173473000D01*
X60415051Y-173463684D01*
X60526896Y-173371896D01*
X60563741Y-173327000D01*
X60581250Y-173327000D01*
X60740000Y-173168250D01*
X60728868Y-173066117D01*
X60717650Y-173031045D01*
X60728890Y-172993991D01*
X60743072Y-172850000D01*
X60743072Y-172650000D01*
X60728890Y-172506009D01*
X60713813Y-172456308D01*
X60858061Y-172485000D01*
X61061939Y-172485000D01*
X61261898Y-172445226D01*
X61450256Y-172367205D01*
X61619774Y-172253937D01*
X61763937Y-172109774D01*
X61877205Y-171940256D01*
X61955226Y-171751898D01*
X61995000Y-171551939D01*
X61995000Y-171348061D01*
X61955226Y-171148102D01*
X61877205Y-170959744D01*
X61763937Y-170790226D01*
X61619774Y-170646063D01*
X61450256Y-170532795D01*
X61261898Y-170454774D01*
X61061939Y-170415000D01*
X60858061Y-170415000D01*
X60713813Y-170443692D01*
X60728890Y-170393991D01*
X60743072Y-170250000D01*
X60743072Y-170050000D01*
X60728890Y-169906009D01*
X60704316Y-169825000D01*
X60728890Y-169743991D01*
X60743072Y-169600000D01*
X60743072Y-169400000D01*
X60728890Y-169256009D01*
X60686890Y-169117552D01*
X60618684Y-168989949D01*
X60526896Y-168878104D01*
X60415051Y-168786316D01*
X60287448Y-168718110D01*
X60240803Y-168703960D01*
X60284705Y-168638256D01*
X60362726Y-168449898D01*
X60402500Y-168249939D01*
X60402500Y-168046061D01*
X60362726Y-167846102D01*
X60284705Y-167657744D01*
X60171437Y-167488226D01*
X60027274Y-167344063D01*
X59857756Y-167230795D01*
X59669398Y-167152774D01*
X59469439Y-167113000D01*
X59265561Y-167113000D01*
X59065602Y-167152774D01*
X58877244Y-167230795D01*
X58707726Y-167344063D01*
X58563563Y-167488226D01*
X58520269Y-167553019D01*
X58480250Y-167513000D01*
X57531000Y-167513000D01*
X57531000Y-167533000D01*
X57277000Y-167533000D01*
X57277000Y-167513000D01*
X57257000Y-167513000D01*
X57257000Y-167259000D01*
X57277000Y-167259000D01*
X57277000Y-166209750D01*
X57531000Y-166209750D01*
X57531000Y-167259000D01*
X58480250Y-167259000D01*
X58639000Y-167100250D01*
X58642072Y-166686000D01*
X58629812Y-166561518D01*
X58593502Y-166441820D01*
X58534537Y-166331506D01*
X58455185Y-166234815D01*
X58358494Y-166155463D01*
X58248180Y-166096498D01*
X58128482Y-166060188D01*
X58004000Y-166047928D01*
X57689750Y-166051000D01*
X57531000Y-166209750D01*
X57277000Y-166209750D01*
X57118250Y-166051000D01*
X56804000Y-166047928D01*
X56679518Y-166060188D01*
X56559820Y-166096498D01*
X56449506Y-166155463D01*
X56352815Y-166234815D01*
X56328637Y-166264276D01*
X56247387Y-166197595D01*
X56093851Y-166115528D01*
X55927255Y-166064992D01*
X55754001Y-166047928D01*
X55053999Y-166047928D01*
X54880745Y-166064992D01*
X54714149Y-166115528D01*
X54560613Y-166197595D01*
X54426038Y-166308038D01*
X54315595Y-166442613D01*
X54233528Y-166596149D01*
X54182992Y-166762745D01*
X54165928Y-166935999D01*
X54165928Y-167836001D01*
X54182992Y-168009255D01*
X54233528Y-168175851D01*
X54315595Y-168329387D01*
X54426038Y-168463962D01*
X54560613Y-168574405D01*
X54644001Y-168618977D01*
X54644000Y-169225680D01*
X54599506Y-169249463D01*
X54502815Y-169328815D01*
X54423463Y-169425506D01*
X54376732Y-169512932D01*
X53929803Y-169066004D01*
X53906000Y-169037000D01*
X53790275Y-168942027D01*
X53658246Y-168871455D01*
X53514985Y-168827998D01*
X53491224Y-168825658D01*
X53511476Y-168758890D01*
X53390155Y-168529000D01*
X52197000Y-168529000D01*
X52197000Y-168549000D01*
X51943000Y-168549000D01*
X51943000Y-168529000D01*
X51923000Y-168529000D01*
X51923000Y-168275000D01*
X51943000Y-168275000D01*
X51943000Y-167081186D01*
X52197000Y-167081186D01*
X52197000Y-168275000D01*
X53390155Y-168275000D01*
X53511476Y-168045110D01*
X53466825Y-167897901D01*
X53341641Y-167635080D01*
X53167588Y-167401731D01*
X52951355Y-167206822D01*
X52701252Y-167057843D01*
X52426891Y-166960519D01*
X52197000Y-167081186D01*
X51943000Y-167081186D01*
X51713109Y-166960519D01*
X51581028Y-167007372D01*
X51637276Y-163632476D01*
X54740001Y-163632476D01*
X54740001Y-164760767D01*
X54756540Y-164928688D01*
X54821898Y-165144144D01*
X54928034Y-165342710D01*
X55070869Y-165516754D01*
X55244913Y-165659589D01*
X55443479Y-165765724D01*
X55658935Y-165831082D01*
X55883001Y-165853151D01*
X56107068Y-165831082D01*
X56322524Y-165765724D01*
X56521090Y-165659589D01*
X56695134Y-165516754D01*
X56837969Y-165342710D01*
X56944104Y-165144144D01*
X57009462Y-164928688D01*
X57026001Y-164760767D01*
X57026001Y-163632476D01*
X57290001Y-163632476D01*
X57290001Y-164760767D01*
X57306540Y-164928688D01*
X57371898Y-165144144D01*
X57478034Y-165342710D01*
X57620869Y-165516754D01*
X57794913Y-165659589D01*
X57993479Y-165765724D01*
X58208935Y-165831082D01*
X58433001Y-165853151D01*
X58657068Y-165831082D01*
X58872524Y-165765724D01*
X59071090Y-165659589D01*
X59245134Y-165516754D01*
X59387969Y-165342710D01*
X59421273Y-165280401D01*
X62944660Y-165280401D01*
X62944660Y-165484279D01*
X62984434Y-165684238D01*
X63062455Y-165872596D01*
X63175723Y-166042114D01*
X63269990Y-166136381D01*
X63269991Y-170638696D01*
X63266314Y-170676028D01*
X63269991Y-170713361D01*
X63280988Y-170825014D01*
X63284853Y-170837754D01*
X63324444Y-170968274D01*
X63395016Y-171100304D01*
X63436387Y-171150714D01*
X63489990Y-171216029D01*
X63518988Y-171239827D01*
X63590158Y-171310997D01*
X63613961Y-171340001D01*
X63716928Y-171424504D01*
X63716928Y-171550000D01*
X63731110Y-171693991D01*
X63755684Y-171775000D01*
X63731110Y-171856009D01*
X63716928Y-172000000D01*
X63716928Y-172200000D01*
X63731110Y-172343991D01*
X63755684Y-172425000D01*
X63731110Y-172506009D01*
X63716928Y-172650000D01*
X63716928Y-172850000D01*
X63731110Y-172993991D01*
X63755684Y-173075000D01*
X63731110Y-173156009D01*
X63716928Y-173300000D01*
X63716928Y-173500000D01*
X63731110Y-173643991D01*
X63773110Y-173782448D01*
X63841316Y-173910051D01*
X63933104Y-174021896D01*
X64044949Y-174113684D01*
X64172552Y-174181890D01*
X64311009Y-174223890D01*
X64455000Y-174238072D01*
X65730000Y-174238072D01*
X65873991Y-174223890D01*
X66012448Y-174181890D01*
X66053401Y-174160000D01*
X67030146Y-174160000D01*
X67067468Y-174163676D01*
X67104790Y-174160000D01*
X67104801Y-174160000D01*
X67216454Y-174149003D01*
X67359715Y-174105546D01*
X67491744Y-174034974D01*
X67607469Y-173940001D01*
X67631272Y-173910997D01*
X68837004Y-172705266D01*
X68866001Y-172681469D01*
X68900034Y-172640000D01*
X68960974Y-172565745D01*
X69031546Y-172433715D01*
X69061493Y-172334990D01*
X69075003Y-172290454D01*
X69086000Y-172178801D01*
X69086000Y-172178792D01*
X69089676Y-172141469D01*
X69086000Y-172104146D01*
X69086000Y-156141445D01*
X69089676Y-156104120D01*
X69086000Y-156066795D01*
X69086000Y-156066787D01*
X69075003Y-155955134D01*
X69031546Y-155811873D01*
X68960974Y-155679844D01*
X68866001Y-155564119D01*
X68837003Y-155540321D01*
X67006977Y-153710296D01*
X67072709Y-153587320D01*
X67166171Y-153279217D01*
X67197729Y-152958801D01*
X67166171Y-152638385D01*
X67072709Y-152330282D01*
X66920935Y-152046334D01*
X66716682Y-151797450D01*
X66584292Y-151688801D01*
X66716682Y-151580152D01*
X66920935Y-151331268D01*
X66945914Y-151284537D01*
X67022943Y-151336006D01*
X67211301Y-151414027D01*
X67411260Y-151453801D01*
X67615138Y-151453801D01*
X67815097Y-151414027D01*
X68003455Y-151336006D01*
X68172973Y-151222738D01*
X68317136Y-151078575D01*
X68430404Y-150909057D01*
X68508425Y-150720699D01*
X68548199Y-150520740D01*
X68548199Y-150316862D01*
X68508425Y-150116903D01*
X68430404Y-149928545D01*
X68317136Y-149759027D01*
X68172973Y-149614864D01*
X68003455Y-149501596D01*
X67815097Y-149423575D01*
X67615138Y-149383801D01*
X67411260Y-149383801D01*
X67211301Y-149423575D01*
X67022943Y-149501596D01*
X66945914Y-149553065D01*
X66920935Y-149506334D01*
X66716682Y-149257450D01*
X66586426Y-149150552D01*
X66800893Y-148944757D01*
X66984918Y-148681278D01*
X67114004Y-148386960D01*
X67144950Y-148259155D01*
X67025596Y-148005801D01*
X65307681Y-148005801D01*
X65307681Y-148025801D01*
X65053681Y-148025801D01*
X65053681Y-148005801D01*
X63335766Y-148005801D01*
X63216412Y-148259155D01*
X63247358Y-148386960D01*
X63376444Y-148681278D01*
X63560469Y-148944757D01*
X63774936Y-149150552D01*
X63644680Y-149257450D01*
X63440427Y-149506334D01*
X63288653Y-149790282D01*
X63195191Y-150098385D01*
X63163633Y-150418801D01*
X63195191Y-150739217D01*
X63288653Y-151047320D01*
X63440427Y-151331268D01*
X63644680Y-151580152D01*
X63777070Y-151688801D01*
X63644680Y-151797450D01*
X63440427Y-152046334D01*
X63288653Y-152330282D01*
X63195191Y-152638385D01*
X63163633Y-152958801D01*
X63195191Y-153279217D01*
X63288653Y-153587320D01*
X63440427Y-153871268D01*
X63644680Y-154120152D01*
X63777070Y-154228801D01*
X63644680Y-154337450D01*
X63440427Y-154586334D01*
X63288653Y-154870282D01*
X63195191Y-155178385D01*
X63163633Y-155498801D01*
X63195191Y-155819217D01*
X63288653Y-156127320D01*
X63440427Y-156411268D01*
X63644680Y-156660152D01*
X63777070Y-156768801D01*
X63644680Y-156877450D01*
X63440427Y-157126334D01*
X63288653Y-157410282D01*
X63195191Y-157718385D01*
X63163633Y-158038801D01*
X63195191Y-158359217D01*
X63288653Y-158667320D01*
X63440427Y-158951268D01*
X63644680Y-159200152D01*
X63777070Y-159308801D01*
X63644680Y-159417450D01*
X63440427Y-159666334D01*
X63288653Y-159950282D01*
X63195191Y-160258385D01*
X63163633Y-160578801D01*
X63195191Y-160899217D01*
X63288653Y-161207320D01*
X63440427Y-161491268D01*
X63644680Y-161740152D01*
X63777070Y-161848801D01*
X63644680Y-161957450D01*
X63440427Y-162206334D01*
X63288653Y-162490282D01*
X63195191Y-162798385D01*
X63163633Y-163118801D01*
X63195191Y-163439217D01*
X63288653Y-163747320D01*
X63440427Y-164031268D01*
X63644680Y-164280152D01*
X63756041Y-164371543D01*
X63677762Y-164387114D01*
X63489404Y-164465135D01*
X63319886Y-164578403D01*
X63175723Y-164722566D01*
X63062455Y-164892084D01*
X62984434Y-165080442D01*
X62944660Y-165280401D01*
X59421273Y-165280401D01*
X59494104Y-165144144D01*
X59559462Y-164928688D01*
X59576001Y-164760767D01*
X59576001Y-163632475D01*
X59559462Y-163464554D01*
X59494104Y-163249098D01*
X59387969Y-163050532D01*
X59245134Y-162876488D01*
X59071089Y-162733653D01*
X58872523Y-162627518D01*
X58657067Y-162562160D01*
X58433001Y-162540091D01*
X58208934Y-162562160D01*
X57993478Y-162627518D01*
X57794912Y-162733653D01*
X57620868Y-162876488D01*
X57478033Y-163050533D01*
X57371898Y-163249099D01*
X57306540Y-163464555D01*
X57290001Y-163632476D01*
X57026001Y-163632476D01*
X57026001Y-163632475D01*
X57009462Y-163464554D01*
X56944104Y-163249098D01*
X56837969Y-163050532D01*
X56695134Y-162876488D01*
X56521089Y-162733653D01*
X56322523Y-162627518D01*
X56107067Y-162562160D01*
X55883001Y-162540091D01*
X55658934Y-162562160D01*
X55443478Y-162627518D01*
X55244912Y-162733653D01*
X55070868Y-162876488D01*
X54928033Y-163050533D01*
X54821898Y-163249099D01*
X54756540Y-163464555D01*
X54740001Y-163632476D01*
X51637276Y-163632476D01*
X51686901Y-160655000D01*
X61214000Y-160655000D01*
X61238776Y-160652560D01*
X61262601Y-160645333D01*
X61284557Y-160633597D01*
X61303803Y-160617803D01*
X61319597Y-160598557D01*
X61331333Y-160576601D01*
X61338560Y-160552776D01*
X61341000Y-160528000D01*
X61341000Y-147498447D01*
X63216412Y-147498447D01*
X63335766Y-147751801D01*
X65053681Y-147751801D01*
X65053681Y-146244311D01*
X65307681Y-146244311D01*
X65307681Y-147751801D01*
X67025596Y-147751801D01*
X67144950Y-147498447D01*
X67114004Y-147370642D01*
X66984918Y-147076324D01*
X66800893Y-146812845D01*
X66569002Y-146590330D01*
X66298156Y-146417330D01*
X65998764Y-146300494D01*
X65682331Y-146244311D01*
X65307681Y-146244311D01*
X65053681Y-146244311D01*
X64679031Y-146244311D01*
X64362598Y-146300494D01*
X64063206Y-146417330D01*
X63792360Y-146590330D01*
X63560469Y-146812845D01*
X63376444Y-147076324D01*
X63247358Y-147370642D01*
X63216412Y-147498447D01*
X61341000Y-147498447D01*
X61341000Y-145694000D01*
X69444001Y-145694000D01*
X69444000Y-175108000D01*
%TA.AperFunction,Conductor*%
D19*
G36*
X69444000Y-175108000D02*
G01*
X51446017Y-175108000D01*
X51450604Y-174832790D01*
X51636842Y-174909932D01*
X51923740Y-174967000D01*
X52216260Y-174967000D01*
X52503158Y-174909932D01*
X52773411Y-174797990D01*
X53016632Y-174635475D01*
X53223475Y-174428632D01*
X53385990Y-174185411D01*
X53497932Y-173915158D01*
X53555000Y-173628260D01*
X53555000Y-173335740D01*
X53497932Y-173048842D01*
X53385990Y-172778589D01*
X53223475Y-172535368D01*
X53016632Y-172328525D01*
X52842240Y-172212000D01*
X53016632Y-172095475D01*
X53223475Y-171888632D01*
X53348178Y-171702000D01*
X53533199Y-171702000D01*
X55092200Y-173261002D01*
X55115999Y-173290001D01*
X55144997Y-173313799D01*
X55231723Y-173384974D01*
X55332403Y-173438789D01*
X55363753Y-173455546D01*
X55507014Y-173499003D01*
X55618667Y-173510000D01*
X55618676Y-173510000D01*
X55655999Y-173513676D01*
X55693322Y-173510000D01*
X57995000Y-173510000D01*
X57995000Y-173527002D01*
X58099748Y-173527002D01*
X57995000Y-173631750D01*
X58006132Y-173733883D01*
X58044239Y-173853021D01*
X58104856Y-173962436D01*
X58185654Y-174057922D01*
X58283529Y-174135811D01*
X58394718Y-174193109D01*
X58514948Y-174227614D01*
X58639600Y-174238000D01*
X59081750Y-174235000D01*
X59240500Y-174076250D01*
X59240500Y-173588072D01*
X59494500Y-173588072D01*
X59494500Y-174076250D01*
X59653250Y-174235000D01*
X60095400Y-174238000D01*
X60220052Y-174227614D01*
X60340282Y-174193109D01*
X60451471Y-174135811D01*
X60549346Y-174057922D01*
X60630144Y-173962436D01*
X60690761Y-173853021D01*
X60728868Y-173733883D01*
X60740000Y-173631750D01*
X60581250Y-173473000D01*
X60397622Y-173473000D01*
X60415051Y-173463684D01*
X60526896Y-173371896D01*
X60563741Y-173327000D01*
X60581250Y-173327000D01*
X60740000Y-173168250D01*
X60728868Y-173066117D01*
X60717650Y-173031045D01*
X60728890Y-172993991D01*
X60743072Y-172850000D01*
X60743072Y-172650000D01*
X60728890Y-172506009D01*
X60713813Y-172456308D01*
X60858061Y-172485000D01*
X61061939Y-172485000D01*
X61261898Y-172445226D01*
X61450256Y-172367205D01*
X61619774Y-172253937D01*
X61763937Y-172109774D01*
X61877205Y-171940256D01*
X61955226Y-171751898D01*
X61995000Y-171551939D01*
X61995000Y-171348061D01*
X61955226Y-171148102D01*
X61877205Y-170959744D01*
X61763937Y-170790226D01*
X61619774Y-170646063D01*
X61450256Y-170532795D01*
X61261898Y-170454774D01*
X61061939Y-170415000D01*
X60858061Y-170415000D01*
X60713813Y-170443692D01*
X60728890Y-170393991D01*
X60743072Y-170250000D01*
X60743072Y-170050000D01*
X60728890Y-169906009D01*
X60704316Y-169825000D01*
X60728890Y-169743991D01*
X60743072Y-169600000D01*
X60743072Y-169400000D01*
X60728890Y-169256009D01*
X60686890Y-169117552D01*
X60618684Y-168989949D01*
X60526896Y-168878104D01*
X60415051Y-168786316D01*
X60287448Y-168718110D01*
X60240803Y-168703960D01*
X60284705Y-168638256D01*
X60362726Y-168449898D01*
X60402500Y-168249939D01*
X60402500Y-168046061D01*
X60362726Y-167846102D01*
X60284705Y-167657744D01*
X60171437Y-167488226D01*
X60027274Y-167344063D01*
X59857756Y-167230795D01*
X59669398Y-167152774D01*
X59469439Y-167113000D01*
X59265561Y-167113000D01*
X59065602Y-167152774D01*
X58877244Y-167230795D01*
X58707726Y-167344063D01*
X58563563Y-167488226D01*
X58520269Y-167553019D01*
X58480250Y-167513000D01*
X57531000Y-167513000D01*
X57531000Y-167533000D01*
X57277000Y-167533000D01*
X57277000Y-167513000D01*
X57257000Y-167513000D01*
X57257000Y-167259000D01*
X57277000Y-167259000D01*
X57277000Y-166209750D01*
X57531000Y-166209750D01*
X57531000Y-167259000D01*
X58480250Y-167259000D01*
X58639000Y-167100250D01*
X58642072Y-166686000D01*
X58629812Y-166561518D01*
X58593502Y-166441820D01*
X58534537Y-166331506D01*
X58455185Y-166234815D01*
X58358494Y-166155463D01*
X58248180Y-166096498D01*
X58128482Y-166060188D01*
X58004000Y-166047928D01*
X57689750Y-166051000D01*
X57531000Y-166209750D01*
X57277000Y-166209750D01*
X57118250Y-166051000D01*
X56804000Y-166047928D01*
X56679518Y-166060188D01*
X56559820Y-166096498D01*
X56449506Y-166155463D01*
X56352815Y-166234815D01*
X56328637Y-166264276D01*
X56247387Y-166197595D01*
X56093851Y-166115528D01*
X55927255Y-166064992D01*
X55754001Y-166047928D01*
X55053999Y-166047928D01*
X54880745Y-166064992D01*
X54714149Y-166115528D01*
X54560613Y-166197595D01*
X54426038Y-166308038D01*
X54315595Y-166442613D01*
X54233528Y-166596149D01*
X54182992Y-166762745D01*
X54165928Y-166935999D01*
X54165928Y-167836001D01*
X54182992Y-168009255D01*
X54233528Y-168175851D01*
X54315595Y-168329387D01*
X54426038Y-168463962D01*
X54560613Y-168574405D01*
X54644001Y-168618977D01*
X54644000Y-169225680D01*
X54599506Y-169249463D01*
X54502815Y-169328815D01*
X54423463Y-169425506D01*
X54376732Y-169512932D01*
X53929803Y-169066004D01*
X53906000Y-169037000D01*
X53790275Y-168942027D01*
X53658246Y-168871455D01*
X53514985Y-168827998D01*
X53491224Y-168825658D01*
X53511476Y-168758890D01*
X53390155Y-168529000D01*
X52197000Y-168529000D01*
X52197000Y-168549000D01*
X51943000Y-168549000D01*
X51943000Y-168529000D01*
X51923000Y-168529000D01*
X51923000Y-168275000D01*
X51943000Y-168275000D01*
X51943000Y-167081186D01*
X52197000Y-167081186D01*
X52197000Y-168275000D01*
X53390155Y-168275000D01*
X53511476Y-168045110D01*
X53466825Y-167897901D01*
X53341641Y-167635080D01*
X53167588Y-167401731D01*
X52951355Y-167206822D01*
X52701252Y-167057843D01*
X52426891Y-166960519D01*
X52197000Y-167081186D01*
X51943000Y-167081186D01*
X51713109Y-166960519D01*
X51581028Y-167007372D01*
X51637276Y-163632476D01*
X54740001Y-163632476D01*
X54740001Y-164760767D01*
X54756540Y-164928688D01*
X54821898Y-165144144D01*
X54928034Y-165342710D01*
X55070869Y-165516754D01*
X55244913Y-165659589D01*
X55443479Y-165765724D01*
X55658935Y-165831082D01*
X55883001Y-165853151D01*
X56107068Y-165831082D01*
X56322524Y-165765724D01*
X56521090Y-165659589D01*
X56695134Y-165516754D01*
X56837969Y-165342710D01*
X56944104Y-165144144D01*
X57009462Y-164928688D01*
X57026001Y-164760767D01*
X57026001Y-163632476D01*
X57290001Y-163632476D01*
X57290001Y-164760767D01*
X57306540Y-164928688D01*
X57371898Y-165144144D01*
X57478034Y-165342710D01*
X57620869Y-165516754D01*
X57794913Y-165659589D01*
X57993479Y-165765724D01*
X58208935Y-165831082D01*
X58433001Y-165853151D01*
X58657068Y-165831082D01*
X58872524Y-165765724D01*
X59071090Y-165659589D01*
X59245134Y-165516754D01*
X59387969Y-165342710D01*
X59421273Y-165280401D01*
X62944660Y-165280401D01*
X62944660Y-165484279D01*
X62984434Y-165684238D01*
X63062455Y-165872596D01*
X63175723Y-166042114D01*
X63269990Y-166136381D01*
X63269991Y-170638696D01*
X63266314Y-170676028D01*
X63269991Y-170713361D01*
X63280988Y-170825014D01*
X63284853Y-170837754D01*
X63324444Y-170968274D01*
X63395016Y-171100304D01*
X63436387Y-171150714D01*
X63489990Y-171216029D01*
X63518988Y-171239827D01*
X63590158Y-171310997D01*
X63613961Y-171340001D01*
X63716928Y-171424504D01*
X63716928Y-171550000D01*
X63731110Y-171693991D01*
X63755684Y-171775000D01*
X63731110Y-171856009D01*
X63716928Y-172000000D01*
X63716928Y-172200000D01*
X63731110Y-172343991D01*
X63755684Y-172425000D01*
X63731110Y-172506009D01*
X63716928Y-172650000D01*
X63716928Y-172850000D01*
X63731110Y-172993991D01*
X63755684Y-173075000D01*
X63731110Y-173156009D01*
X63716928Y-173300000D01*
X63716928Y-173500000D01*
X63731110Y-173643991D01*
X63773110Y-173782448D01*
X63841316Y-173910051D01*
X63933104Y-174021896D01*
X64044949Y-174113684D01*
X64172552Y-174181890D01*
X64311009Y-174223890D01*
X64455000Y-174238072D01*
X65730000Y-174238072D01*
X65873991Y-174223890D01*
X66012448Y-174181890D01*
X66053401Y-174160000D01*
X67030146Y-174160000D01*
X67067468Y-174163676D01*
X67104790Y-174160000D01*
X67104801Y-174160000D01*
X67216454Y-174149003D01*
X67359715Y-174105546D01*
X67491744Y-174034974D01*
X67607469Y-173940001D01*
X67631272Y-173910997D01*
X68837004Y-172705266D01*
X68866001Y-172681469D01*
X68900034Y-172640000D01*
X68960974Y-172565745D01*
X69031546Y-172433715D01*
X69061493Y-172334990D01*
X69075003Y-172290454D01*
X69086000Y-172178801D01*
X69086000Y-172178792D01*
X69089676Y-172141469D01*
X69086000Y-172104146D01*
X69086000Y-156141445D01*
X69089676Y-156104120D01*
X69086000Y-156066795D01*
X69086000Y-156066787D01*
X69075003Y-155955134D01*
X69031546Y-155811873D01*
X68960974Y-155679844D01*
X68866001Y-155564119D01*
X68837003Y-155540321D01*
X67006977Y-153710296D01*
X67072709Y-153587320D01*
X67166171Y-153279217D01*
X67197729Y-152958801D01*
X67166171Y-152638385D01*
X67072709Y-152330282D01*
X66920935Y-152046334D01*
X66716682Y-151797450D01*
X66584292Y-151688801D01*
X66716682Y-151580152D01*
X66920935Y-151331268D01*
X66945914Y-151284537D01*
X67022943Y-151336006D01*
X67211301Y-151414027D01*
X67411260Y-151453801D01*
X67615138Y-151453801D01*
X67815097Y-151414027D01*
X68003455Y-151336006D01*
X68172973Y-151222738D01*
X68317136Y-151078575D01*
X68430404Y-150909057D01*
X68508425Y-150720699D01*
X68548199Y-150520740D01*
X68548199Y-150316862D01*
X68508425Y-150116903D01*
X68430404Y-149928545D01*
X68317136Y-149759027D01*
X68172973Y-149614864D01*
X68003455Y-149501596D01*
X67815097Y-149423575D01*
X67615138Y-149383801D01*
X67411260Y-149383801D01*
X67211301Y-149423575D01*
X67022943Y-149501596D01*
X66945914Y-149553065D01*
X66920935Y-149506334D01*
X66716682Y-149257450D01*
X66586426Y-149150552D01*
X66800893Y-148944757D01*
X66984918Y-148681278D01*
X67114004Y-148386960D01*
X67144950Y-148259155D01*
X67025596Y-148005801D01*
X65307681Y-148005801D01*
X65307681Y-148025801D01*
X65053681Y-148025801D01*
X65053681Y-148005801D01*
X63335766Y-148005801D01*
X63216412Y-148259155D01*
X63247358Y-148386960D01*
X63376444Y-148681278D01*
X63560469Y-148944757D01*
X63774936Y-149150552D01*
X63644680Y-149257450D01*
X63440427Y-149506334D01*
X63288653Y-149790282D01*
X63195191Y-150098385D01*
X63163633Y-150418801D01*
X63195191Y-150739217D01*
X63288653Y-151047320D01*
X63440427Y-151331268D01*
X63644680Y-151580152D01*
X63777070Y-151688801D01*
X63644680Y-151797450D01*
X63440427Y-152046334D01*
X63288653Y-152330282D01*
X63195191Y-152638385D01*
X63163633Y-152958801D01*
X63195191Y-153279217D01*
X63288653Y-153587320D01*
X63440427Y-153871268D01*
X63644680Y-154120152D01*
X63777070Y-154228801D01*
X63644680Y-154337450D01*
X63440427Y-154586334D01*
X63288653Y-154870282D01*
X63195191Y-155178385D01*
X63163633Y-155498801D01*
X63195191Y-155819217D01*
X63288653Y-156127320D01*
X63440427Y-156411268D01*
X63644680Y-156660152D01*
X63777070Y-156768801D01*
X63644680Y-156877450D01*
X63440427Y-157126334D01*
X63288653Y-157410282D01*
X63195191Y-157718385D01*
X63163633Y-158038801D01*
X63195191Y-158359217D01*
X63288653Y-158667320D01*
X63440427Y-158951268D01*
X63644680Y-159200152D01*
X63777070Y-159308801D01*
X63644680Y-159417450D01*
X63440427Y-159666334D01*
X63288653Y-159950282D01*
X63195191Y-160258385D01*
X63163633Y-160578801D01*
X63195191Y-160899217D01*
X63288653Y-161207320D01*
X63440427Y-161491268D01*
X63644680Y-161740152D01*
X63777070Y-161848801D01*
X63644680Y-161957450D01*
X63440427Y-162206334D01*
X63288653Y-162490282D01*
X63195191Y-162798385D01*
X63163633Y-163118801D01*
X63195191Y-163439217D01*
X63288653Y-163747320D01*
X63440427Y-164031268D01*
X63644680Y-164280152D01*
X63756041Y-164371543D01*
X63677762Y-164387114D01*
X63489404Y-164465135D01*
X63319886Y-164578403D01*
X63175723Y-164722566D01*
X63062455Y-164892084D01*
X62984434Y-165080442D01*
X62944660Y-165280401D01*
X59421273Y-165280401D01*
X59494104Y-165144144D01*
X59559462Y-164928688D01*
X59576001Y-164760767D01*
X59576001Y-163632475D01*
X59559462Y-163464554D01*
X59494104Y-163249098D01*
X59387969Y-163050532D01*
X59245134Y-162876488D01*
X59071089Y-162733653D01*
X58872523Y-162627518D01*
X58657067Y-162562160D01*
X58433001Y-162540091D01*
X58208934Y-162562160D01*
X57993478Y-162627518D01*
X57794912Y-162733653D01*
X57620868Y-162876488D01*
X57478033Y-163050533D01*
X57371898Y-163249099D01*
X57306540Y-163464555D01*
X57290001Y-163632476D01*
X57026001Y-163632476D01*
X57026001Y-163632475D01*
X57009462Y-163464554D01*
X56944104Y-163249098D01*
X56837969Y-163050532D01*
X56695134Y-162876488D01*
X56521089Y-162733653D01*
X56322523Y-162627518D01*
X56107067Y-162562160D01*
X55883001Y-162540091D01*
X55658934Y-162562160D01*
X55443478Y-162627518D01*
X55244912Y-162733653D01*
X55070868Y-162876488D01*
X54928033Y-163050533D01*
X54821898Y-163249099D01*
X54756540Y-163464555D01*
X54740001Y-163632476D01*
X51637276Y-163632476D01*
X51686901Y-160655000D01*
X61214000Y-160655000D01*
X61238776Y-160652560D01*
X61262601Y-160645333D01*
X61284557Y-160633597D01*
X61303803Y-160617803D01*
X61319597Y-160598557D01*
X61331333Y-160576601D01*
X61338560Y-160552776D01*
X61341000Y-160528000D01*
X61341000Y-147498447D01*
X63216412Y-147498447D01*
X63335766Y-147751801D01*
X65053681Y-147751801D01*
X65053681Y-146244311D01*
X65307681Y-146244311D01*
X65307681Y-147751801D01*
X67025596Y-147751801D01*
X67144950Y-147498447D01*
X67114004Y-147370642D01*
X66984918Y-147076324D01*
X66800893Y-146812845D01*
X66569002Y-146590330D01*
X66298156Y-146417330D01*
X65998764Y-146300494D01*
X65682331Y-146244311D01*
X65307681Y-146244311D01*
X65053681Y-146244311D01*
X64679031Y-146244311D01*
X64362598Y-146300494D01*
X64063206Y-146417330D01*
X63792360Y-146590330D01*
X63560469Y-146812845D01*
X63376444Y-147076324D01*
X63247358Y-147370642D01*
X63216412Y-147498447D01*
X61341000Y-147498447D01*
X61341000Y-145694000D01*
X69444001Y-145694000D01*
X69444000Y-175108000D01*
G37*
%TD.AperFunction*%
%TD*%
M02*
