%FSLAX45Y45*%
G04 Gerber Fmt 4.5, Leading zero omitted, Abs format (unit mm)*
G04 Created by KiCad (PCBNEW (5.1.9)-1) date 2021-01-02 03:10:12*
%MOMM*%
%LPD*%
G01*
G04 APERTURE LIST*
%TA.AperFunction,Profile*%
%ADD10C,0.050000*%
%TD*%
%ADD11C,0.200000*%
%ADD12C,0.300000*%
G04 APERTURE END LIST*
D10*
X4419600Y-17576800D02*
X7010400Y-17576800D01*
X4419600Y-14503400D02*
X4419600Y-17576800D01*
X7010400Y-14503400D02*
X4419600Y-14503400D01*
X7010400Y-17576800D02*
X7010400Y-14503400D01*
D11*
X4526600Y-14915200D02*
X4566600Y-14955200D01*
X4566600Y-14915200D02*
X4526600Y-14955200D01*
X5273066Y-15413334D02*
X5313066Y-15453334D01*
X5313066Y-15413334D02*
X5273066Y-15453334D01*
X5463566Y-15857834D02*
X5503566Y-15897834D01*
X5503566Y-15857834D02*
X5463566Y-15897834D01*
X5615564Y-17048560D02*
X5655564Y-17088560D01*
X5655564Y-17048560D02*
X5615564Y-17088560D01*
X5618800Y-16871000D02*
X5658800Y-16911000D01*
X5658800Y-16871000D02*
X5618800Y-16911000D01*
X5916750Y-16794800D02*
X5956750Y-16834800D01*
X5956750Y-16794800D02*
X5916750Y-16834800D01*
X6076000Y-17125000D02*
X6116000Y-17165000D01*
X6116000Y-17125000D02*
X6076000Y-17165000D01*
X6377966Y-16518234D02*
X6417966Y-16558234D01*
X6417966Y-16518234D02*
X6377966Y-16558234D01*
X6489250Y-16801650D02*
X6529250Y-16841650D01*
X6529250Y-16801650D02*
X6489250Y-16841650D01*
X6731320Y-15021880D02*
X6771320Y-15061880D01*
X6771320Y-15021880D02*
X6731320Y-15061880D01*
X5003000Y-16840200D02*
G75*
G03*
X5003000Y-16840200I-50000J0D01*
G01*
X5003000Y-17094200D02*
G75*
G03*
X5003000Y-17094200I-50000J0D01*
G01*
X5003000Y-17348200D02*
G75*
G03*
X5003000Y-17348200I-50000J0D01*
G01*
X5257000Y-16840200D02*
G75*
G03*
X5257000Y-16840200I-50000J0D01*
G01*
X5257000Y-17094200D02*
G75*
G03*
X5257000Y-17094200I-50000J0D01*
G01*
X5257000Y-17348200D02*
G75*
G03*
X5257000Y-17348200I-50000J0D01*
G01*
D12*
X4703528Y-18045014D02*
X4703528Y-17745014D01*
X4774957Y-17745014D01*
X4817814Y-17759300D01*
X4846386Y-17787872D01*
X4860671Y-17816443D01*
X4874957Y-17873586D01*
X4874957Y-17916443D01*
X4860671Y-17973586D01*
X4846386Y-18002157D01*
X4817814Y-18030729D01*
X4774957Y-18045014D01*
X4703528Y-18045014D01*
X5003528Y-18045014D02*
X5003528Y-17845014D01*
X5003528Y-17902157D02*
X5017814Y-17873586D01*
X5032100Y-17859300D01*
X5060671Y-17845014D01*
X5089243Y-17845014D01*
X5189243Y-18045014D02*
X5189243Y-17845014D01*
X5189243Y-17745014D02*
X5174957Y-17759300D01*
X5189243Y-17773586D01*
X5203528Y-17759300D01*
X5189243Y-17745014D01*
X5189243Y-17773586D01*
X5374957Y-18045014D02*
X5346386Y-18030729D01*
X5332100Y-18002157D01*
X5332100Y-17745014D01*
X5532100Y-18045014D02*
X5503528Y-18030729D01*
X5489243Y-18002157D01*
X5489243Y-17745014D01*
X5874957Y-18045014D02*
X5874957Y-17745014D01*
X5974957Y-17959300D01*
X6074957Y-17745014D01*
X6074957Y-18045014D01*
X6346386Y-18045014D02*
X6346386Y-17887872D01*
X6332100Y-17859300D01*
X6303528Y-17845014D01*
X6246386Y-17845014D01*
X6217814Y-17859300D01*
X6346386Y-18030729D02*
X6317814Y-18045014D01*
X6246386Y-18045014D01*
X6217814Y-18030729D01*
X6203528Y-18002157D01*
X6203528Y-17973586D01*
X6217814Y-17945014D01*
X6246386Y-17930729D01*
X6317814Y-17930729D01*
X6346386Y-17916443D01*
X6489243Y-17845014D02*
X6489243Y-18145014D01*
X6489243Y-17859300D02*
X6517814Y-17845014D01*
X6574957Y-17845014D01*
X6603528Y-17859300D01*
X6617814Y-17873586D01*
X6632100Y-17902157D01*
X6632100Y-17987872D01*
X6617814Y-18016443D01*
X6603528Y-18030729D01*
X6574957Y-18045014D01*
X6517814Y-18045014D01*
X6489243Y-18030729D01*
X6760671Y-18016443D02*
X6774957Y-18030729D01*
X6760671Y-18045014D01*
X6746386Y-18030729D01*
X6760671Y-18016443D01*
X6760671Y-18045014D01*
X6760671Y-17859300D02*
X6774957Y-17873586D01*
X6760671Y-17887872D01*
X6746386Y-17873586D01*
X6760671Y-17859300D01*
X6760671Y-17887872D01*
X4377100Y-18519300D02*
X4417100Y-18559300D01*
X4417100Y-18519300D02*
X4377100Y-18559300D01*
X4760671Y-18375014D02*
X4789243Y-18375014D01*
X4817814Y-18389300D01*
X4832100Y-18403586D01*
X4846386Y-18432157D01*
X4860671Y-18489300D01*
X4860671Y-18560729D01*
X4846386Y-18617872D01*
X4832100Y-18646443D01*
X4817814Y-18660729D01*
X4789243Y-18675014D01*
X4760671Y-18675014D01*
X4732100Y-18660729D01*
X4717814Y-18646443D01*
X4703528Y-18617872D01*
X4689243Y-18560729D01*
X4689243Y-18489300D01*
X4703528Y-18432157D01*
X4717814Y-18403586D01*
X4732100Y-18389300D01*
X4760671Y-18375014D01*
X4989243Y-18646443D02*
X5003528Y-18660729D01*
X4989243Y-18675014D01*
X4974957Y-18660729D01*
X4989243Y-18646443D01*
X4989243Y-18675014D01*
X5260671Y-18475014D02*
X5260671Y-18675014D01*
X5189243Y-18360729D02*
X5117814Y-18575014D01*
X5303528Y-18575014D01*
X5474957Y-18375014D02*
X5503528Y-18375014D01*
X5532100Y-18389300D01*
X5546386Y-18403586D01*
X5560671Y-18432157D01*
X5574957Y-18489300D01*
X5574957Y-18560729D01*
X5560671Y-18617872D01*
X5546386Y-18646443D01*
X5532100Y-18660729D01*
X5503528Y-18675014D01*
X5474957Y-18675014D01*
X5446386Y-18660729D01*
X5432100Y-18646443D01*
X5417814Y-18617872D01*
X5403528Y-18560729D01*
X5403528Y-18489300D01*
X5417814Y-18432157D01*
X5432100Y-18403586D01*
X5446386Y-18389300D01*
X5474957Y-18375014D01*
X5703528Y-18675014D02*
X5703528Y-18475014D01*
X5703528Y-18503586D02*
X5717814Y-18489300D01*
X5746386Y-18475014D01*
X5789243Y-18475014D01*
X5817814Y-18489300D01*
X5832100Y-18517872D01*
X5832100Y-18675014D01*
X5832100Y-18517872D02*
X5846386Y-18489300D01*
X5874957Y-18475014D01*
X5917814Y-18475014D01*
X5946386Y-18489300D01*
X5960671Y-18517872D01*
X5960671Y-18675014D01*
X6103528Y-18675014D02*
X6103528Y-18475014D01*
X6103528Y-18503586D02*
X6117814Y-18489300D01*
X6146386Y-18475014D01*
X6189243Y-18475014D01*
X6217814Y-18489300D01*
X6232100Y-18517872D01*
X6232100Y-18675014D01*
X6232100Y-18517872D02*
X6246386Y-18489300D01*
X6274957Y-18475014D01*
X6317814Y-18475014D01*
X6346386Y-18489300D01*
X6360671Y-18517872D01*
X6360671Y-18675014D01*
X6946386Y-18360729D02*
X6689243Y-18746443D01*
X7332100Y-18375014D02*
X7360671Y-18375014D01*
X7389243Y-18389300D01*
X7403528Y-18403586D01*
X7417814Y-18432157D01*
X7432100Y-18489300D01*
X7432100Y-18560729D01*
X7417814Y-18617872D01*
X7403528Y-18646443D01*
X7389243Y-18660729D01*
X7360671Y-18675014D01*
X7332100Y-18675014D01*
X7303528Y-18660729D01*
X7289243Y-18646443D01*
X7274957Y-18617872D01*
X7260671Y-18560729D01*
X7260671Y-18489300D01*
X7274957Y-18432157D01*
X7289243Y-18403586D01*
X7303528Y-18389300D01*
X7332100Y-18375014D01*
X7560671Y-18646443D02*
X7574957Y-18660729D01*
X7560671Y-18675014D01*
X7546386Y-18660729D01*
X7560671Y-18646443D01*
X7560671Y-18675014D01*
X7760671Y-18375014D02*
X7789243Y-18375014D01*
X7817814Y-18389300D01*
X7832100Y-18403586D01*
X7846386Y-18432157D01*
X7860671Y-18489300D01*
X7860671Y-18560729D01*
X7846386Y-18617872D01*
X7832100Y-18646443D01*
X7817814Y-18660729D01*
X7789243Y-18675014D01*
X7760671Y-18675014D01*
X7732100Y-18660729D01*
X7717814Y-18646443D01*
X7703528Y-18617872D01*
X7689243Y-18560729D01*
X7689243Y-18489300D01*
X7703528Y-18432157D01*
X7717814Y-18403586D01*
X7732100Y-18389300D01*
X7760671Y-18375014D01*
X8146386Y-18675014D02*
X7974957Y-18675014D01*
X8060671Y-18675014D02*
X8060671Y-18375014D01*
X8032100Y-18417872D01*
X8003528Y-18446443D01*
X7974957Y-18460729D01*
X8403528Y-18375014D02*
X8346386Y-18375014D01*
X8317814Y-18389300D01*
X8303528Y-18403586D01*
X8274957Y-18446443D01*
X8260671Y-18503586D01*
X8260671Y-18617872D01*
X8274957Y-18646443D01*
X8289243Y-18660729D01*
X8317814Y-18675014D01*
X8374957Y-18675014D01*
X8403528Y-18660729D01*
X8417814Y-18646443D01*
X8432100Y-18617872D01*
X8432100Y-18546443D01*
X8417814Y-18517872D01*
X8403528Y-18503586D01*
X8374957Y-18489300D01*
X8317814Y-18489300D01*
X8289243Y-18503586D01*
X8274957Y-18517872D01*
X8260671Y-18546443D01*
X8546386Y-18375014D02*
X8546386Y-18432157D01*
X8660671Y-18375014D02*
X8660671Y-18432157D01*
X9103528Y-18789300D02*
X9089243Y-18775014D01*
X9060671Y-18732157D01*
X9046386Y-18703586D01*
X9032100Y-18660729D01*
X9017814Y-18589300D01*
X9017814Y-18532157D01*
X9032100Y-18460729D01*
X9046386Y-18417872D01*
X9060671Y-18389300D01*
X9089243Y-18346443D01*
X9103528Y-18332157D01*
X9374957Y-18675014D02*
X9203528Y-18675014D01*
X9289243Y-18675014D02*
X9289243Y-18375014D01*
X9260671Y-18417872D01*
X9232100Y-18446443D01*
X9203528Y-18460729D01*
X9560671Y-18375014D02*
X9589243Y-18375014D01*
X9617814Y-18389300D01*
X9632100Y-18403586D01*
X9646386Y-18432157D01*
X9660671Y-18489300D01*
X9660671Y-18560729D01*
X9646386Y-18617872D01*
X9632100Y-18646443D01*
X9617814Y-18660729D01*
X9589243Y-18675014D01*
X9560671Y-18675014D01*
X9532100Y-18660729D01*
X9517814Y-18646443D01*
X9503528Y-18617872D01*
X9489243Y-18560729D01*
X9489243Y-18489300D01*
X9503528Y-18432157D01*
X9517814Y-18403586D01*
X9532100Y-18389300D01*
X9560671Y-18375014D01*
X10017814Y-18675014D02*
X10017814Y-18375014D01*
X10146386Y-18675014D02*
X10146386Y-18517872D01*
X10132100Y-18489300D01*
X10103528Y-18475014D01*
X10060671Y-18475014D01*
X10032100Y-18489300D01*
X10017814Y-18503586D01*
X10332100Y-18675014D02*
X10303528Y-18660729D01*
X10289243Y-18646443D01*
X10274957Y-18617872D01*
X10274957Y-18532157D01*
X10289243Y-18503586D01*
X10303528Y-18489300D01*
X10332100Y-18475014D01*
X10374957Y-18475014D01*
X10403528Y-18489300D01*
X10417814Y-18503586D01*
X10432100Y-18532157D01*
X10432100Y-18617872D01*
X10417814Y-18646443D01*
X10403528Y-18660729D01*
X10374957Y-18675014D01*
X10332100Y-18675014D01*
X10603528Y-18675014D02*
X10574957Y-18660729D01*
X10560671Y-18632157D01*
X10560671Y-18375014D01*
X10832100Y-18660729D02*
X10803528Y-18675014D01*
X10746386Y-18675014D01*
X10717814Y-18660729D01*
X10703528Y-18632157D01*
X10703528Y-18517872D01*
X10717814Y-18489300D01*
X10746386Y-18475014D01*
X10803528Y-18475014D01*
X10832100Y-18489300D01*
X10846386Y-18517872D01*
X10846386Y-18546443D01*
X10703528Y-18575014D01*
X10960671Y-18660729D02*
X10989243Y-18675014D01*
X11046386Y-18675014D01*
X11074957Y-18660729D01*
X11089243Y-18632157D01*
X11089243Y-18617872D01*
X11074957Y-18589300D01*
X11046386Y-18575014D01*
X11003528Y-18575014D01*
X10974957Y-18560729D01*
X10960671Y-18532157D01*
X10960671Y-18517872D01*
X10974957Y-18489300D01*
X11003528Y-18475014D01*
X11046386Y-18475014D01*
X11074957Y-18489300D01*
X11189243Y-18789300D02*
X11203528Y-18775014D01*
X11232100Y-18732157D01*
X11246386Y-18703586D01*
X11260671Y-18660729D01*
X11274957Y-18589300D01*
X11274957Y-18532157D01*
X11260671Y-18460729D01*
X11246386Y-18417872D01*
X11232100Y-18389300D01*
X11203528Y-18346443D01*
X11189243Y-18332157D01*
X4417100Y-18935300D02*
G75*
G03*
X4417100Y-18935300I-50000J0D01*
G01*
X4860671Y-19071014D02*
X4689243Y-19071014D01*
X4774957Y-19071014D02*
X4774957Y-18771014D01*
X4746386Y-18813872D01*
X4717814Y-18842443D01*
X4689243Y-18856729D01*
X4989243Y-19042443D02*
X5003528Y-19056729D01*
X4989243Y-19071014D01*
X4974957Y-19056729D01*
X4989243Y-19042443D01*
X4989243Y-19071014D01*
X5189243Y-18771014D02*
X5217814Y-18771014D01*
X5246386Y-18785300D01*
X5260671Y-18799586D01*
X5274957Y-18828157D01*
X5289243Y-18885300D01*
X5289243Y-18956729D01*
X5274957Y-19013872D01*
X5260671Y-19042443D01*
X5246386Y-19056729D01*
X5217814Y-19071014D01*
X5189243Y-19071014D01*
X5160671Y-19056729D01*
X5146386Y-19042443D01*
X5132100Y-19013872D01*
X5117814Y-18956729D01*
X5117814Y-18885300D01*
X5132100Y-18828157D01*
X5146386Y-18799586D01*
X5160671Y-18785300D01*
X5189243Y-18771014D01*
X5474957Y-18771014D02*
X5503528Y-18771014D01*
X5532100Y-18785300D01*
X5546386Y-18799586D01*
X5560671Y-18828157D01*
X5574957Y-18885300D01*
X5574957Y-18956729D01*
X5560671Y-19013872D01*
X5546386Y-19042443D01*
X5532100Y-19056729D01*
X5503528Y-19071014D01*
X5474957Y-19071014D01*
X5446386Y-19056729D01*
X5432100Y-19042443D01*
X5417814Y-19013872D01*
X5403528Y-18956729D01*
X5403528Y-18885300D01*
X5417814Y-18828157D01*
X5432100Y-18799586D01*
X5446386Y-18785300D01*
X5474957Y-18771014D01*
X5703528Y-19071014D02*
X5703528Y-18871014D01*
X5703528Y-18899586D02*
X5717814Y-18885300D01*
X5746386Y-18871014D01*
X5789243Y-18871014D01*
X5817814Y-18885300D01*
X5832100Y-18913872D01*
X5832100Y-19071014D01*
X5832100Y-18913872D02*
X5846386Y-18885300D01*
X5874957Y-18871014D01*
X5917814Y-18871014D01*
X5946386Y-18885300D01*
X5960671Y-18913872D01*
X5960671Y-19071014D01*
X6103528Y-19071014D02*
X6103528Y-18871014D01*
X6103528Y-18899586D02*
X6117814Y-18885300D01*
X6146386Y-18871014D01*
X6189243Y-18871014D01*
X6217814Y-18885300D01*
X6232100Y-18913872D01*
X6232100Y-19071014D01*
X6232100Y-18913872D02*
X6246386Y-18885300D01*
X6274957Y-18871014D01*
X6317814Y-18871014D01*
X6346386Y-18885300D01*
X6360671Y-18913872D01*
X6360671Y-19071014D01*
X6946386Y-18756729D02*
X6689243Y-19142443D01*
X7332100Y-18771014D02*
X7360671Y-18771014D01*
X7389243Y-18785300D01*
X7403528Y-18799586D01*
X7417814Y-18828157D01*
X7432100Y-18885300D01*
X7432100Y-18956729D01*
X7417814Y-19013872D01*
X7403528Y-19042443D01*
X7389243Y-19056729D01*
X7360671Y-19071014D01*
X7332100Y-19071014D01*
X7303528Y-19056729D01*
X7289243Y-19042443D01*
X7274957Y-19013872D01*
X7260671Y-18956729D01*
X7260671Y-18885300D01*
X7274957Y-18828157D01*
X7289243Y-18799586D01*
X7303528Y-18785300D01*
X7332100Y-18771014D01*
X7560671Y-19042443D02*
X7574957Y-19056729D01*
X7560671Y-19071014D01*
X7546386Y-19056729D01*
X7560671Y-19042443D01*
X7560671Y-19071014D01*
X7760671Y-18771014D02*
X7789243Y-18771014D01*
X7817814Y-18785300D01*
X7832100Y-18799586D01*
X7846386Y-18828157D01*
X7860671Y-18885300D01*
X7860671Y-18956729D01*
X7846386Y-19013872D01*
X7832100Y-19042443D01*
X7817814Y-19056729D01*
X7789243Y-19071014D01*
X7760671Y-19071014D01*
X7732100Y-19056729D01*
X7717814Y-19042443D01*
X7703528Y-19013872D01*
X7689243Y-18956729D01*
X7689243Y-18885300D01*
X7703528Y-18828157D01*
X7717814Y-18799586D01*
X7732100Y-18785300D01*
X7760671Y-18771014D01*
X7960671Y-18771014D02*
X8146386Y-18771014D01*
X8046386Y-18885300D01*
X8089243Y-18885300D01*
X8117814Y-18899586D01*
X8132100Y-18913872D01*
X8146386Y-18942443D01*
X8146386Y-19013872D01*
X8132100Y-19042443D01*
X8117814Y-19056729D01*
X8089243Y-19071014D01*
X8003528Y-19071014D01*
X7974957Y-19056729D01*
X7960671Y-19042443D01*
X8289243Y-19071014D02*
X8346386Y-19071014D01*
X8374957Y-19056729D01*
X8389243Y-19042443D01*
X8417814Y-18999586D01*
X8432100Y-18942443D01*
X8432100Y-18828157D01*
X8417814Y-18799586D01*
X8403528Y-18785300D01*
X8374957Y-18771014D01*
X8317814Y-18771014D01*
X8289243Y-18785300D01*
X8274957Y-18799586D01*
X8260671Y-18828157D01*
X8260671Y-18899586D01*
X8274957Y-18928157D01*
X8289243Y-18942443D01*
X8317814Y-18956729D01*
X8374957Y-18956729D01*
X8403528Y-18942443D01*
X8417814Y-18928157D01*
X8432100Y-18899586D01*
X8546386Y-18771014D02*
X8546386Y-18828157D01*
X8660671Y-18771014D02*
X8660671Y-18828157D01*
X9103528Y-19185300D02*
X9089243Y-19171014D01*
X9060671Y-19128157D01*
X9046386Y-19099586D01*
X9032100Y-19056729D01*
X9017814Y-18985300D01*
X9017814Y-18928157D01*
X9032100Y-18856729D01*
X9046386Y-18813872D01*
X9060671Y-18785300D01*
X9089243Y-18742443D01*
X9103528Y-18728157D01*
X9346386Y-18771014D02*
X9289243Y-18771014D01*
X9260671Y-18785300D01*
X9246386Y-18799586D01*
X9217814Y-18842443D01*
X9203528Y-18899586D01*
X9203528Y-19013872D01*
X9217814Y-19042443D01*
X9232100Y-19056729D01*
X9260671Y-19071014D01*
X9317814Y-19071014D01*
X9346386Y-19056729D01*
X9360671Y-19042443D01*
X9374957Y-19013872D01*
X9374957Y-18942443D01*
X9360671Y-18913872D01*
X9346386Y-18899586D01*
X9317814Y-18885300D01*
X9260671Y-18885300D01*
X9232100Y-18899586D01*
X9217814Y-18913872D01*
X9203528Y-18942443D01*
X9732100Y-19071014D02*
X9732100Y-18771014D01*
X9860671Y-19071014D02*
X9860671Y-18913872D01*
X9846386Y-18885300D01*
X9817814Y-18871014D01*
X9774957Y-18871014D01*
X9746386Y-18885300D01*
X9732100Y-18899586D01*
X10046386Y-19071014D02*
X10017814Y-19056729D01*
X10003528Y-19042443D01*
X9989243Y-19013872D01*
X9989243Y-18928157D01*
X10003528Y-18899586D01*
X10017814Y-18885300D01*
X10046386Y-18871014D01*
X10089243Y-18871014D01*
X10117814Y-18885300D01*
X10132100Y-18899586D01*
X10146386Y-18928157D01*
X10146386Y-19013872D01*
X10132100Y-19042443D01*
X10117814Y-19056729D01*
X10089243Y-19071014D01*
X10046386Y-19071014D01*
X10317814Y-19071014D02*
X10289243Y-19056729D01*
X10274957Y-19028157D01*
X10274957Y-18771014D01*
X10546386Y-19056729D02*
X10517814Y-19071014D01*
X10460671Y-19071014D01*
X10432100Y-19056729D01*
X10417814Y-19028157D01*
X10417814Y-18913872D01*
X10432100Y-18885300D01*
X10460671Y-18871014D01*
X10517814Y-18871014D01*
X10546386Y-18885300D01*
X10560671Y-18913872D01*
X10560671Y-18942443D01*
X10417814Y-18971014D01*
X10674957Y-19056729D02*
X10703528Y-19071014D01*
X10760671Y-19071014D01*
X10789243Y-19056729D01*
X10803528Y-19028157D01*
X10803528Y-19013872D01*
X10789243Y-18985300D01*
X10760671Y-18971014D01*
X10717814Y-18971014D01*
X10689243Y-18956729D01*
X10674957Y-18928157D01*
X10674957Y-18913872D01*
X10689243Y-18885300D01*
X10717814Y-18871014D01*
X10760671Y-18871014D01*
X10789243Y-18885300D01*
X10903528Y-19185300D02*
X10917814Y-19171014D01*
X10946386Y-19128157D01*
X10960671Y-19099586D01*
X10974957Y-19056729D01*
X10989243Y-18985300D01*
X10989243Y-18928157D01*
X10974957Y-18856729D01*
X10960671Y-18813872D01*
X10946386Y-18785300D01*
X10917814Y-18742443D01*
X10903528Y-18728157D01*
M02*
